<svg xmlns="http://www.w3.org/2000/svg" width="120" height="40.552" viewBox="0 0 120 40.552"><defs><style>.a{fill:#fff;}</style></defs><g transform="translate(-539.82 -3343.667)"><path class="a" d="M220.832,66.554c-.035-1.877-1.035-3.6-2.947-3.6-1.792,0-2.295,1.772-2.23,3.694C215.774,69.939,220.9,69.854,220.832,66.554Z" transform="translate(350.713 3282.376)"/><path class="a" d="M181.047,61.51q-3.5-2.33-9.005-1.792a13.2,13.2,0,0,0-5.371,1.643,10.3,10.3,0,0,0-3.455,2.808,3.947,3.947,0,0,0-.876,2.165q.067.4.732.343a3.08,3.08,0,0,0,1.394-.538c.483-.319,1.035-.667,1.648-1.045a12.6,12.6,0,0,1,5.57-1.807,8,8,0,0,1,4.943.856,4.879,4.879,0,0,1,2.265,3.559q.627,3.778-.986,5.565a4.085,4.085,0,0,1-1.613,1.115,16.668,16.668,0,0,1-1.707.548c-.483.124-.876.244-1.2.363-.811.184-1.523.289-2.136.373.01-.209.02-.413.03-.642q.172-3.554.1-5.784a19.7,19.7,0,0,0-.274-2.549c-.159-.956-.388-1.419-.682-1.389a1.469,1.469,0,0,0-.777.294q-2.479,1.792-3.435,10.668a33.933,33.933,0,0,0,.03,8.94,16.811,16.811,0,0,0,.6,2.608,1.111,1.111,0,0,0,1.244.836q4.249-.388,3.888-2.549l-.777-6.9c3.385-.941,7.183-1.185,10.075-3.42h0c.04-.03.075-.06.11-.09a8.12,8.12,0,0,0,1.752-1.837,5.905,5.905,0,0,0,.732-1.235,8.655,8.655,0,0,0,.816-5.461A8.147,8.147,0,0,0,181.047,61.51Z" transform="translate(377.49 3284.05)"/><path class="a" d="M227.631,90.27c1.752-2.165,3.007-3.833,3.689-4.779a2.467,2.467,0,0,0-.224-3.261s-1.892-1.752-5.8,4.714c0,0,0,.01-.01.01-1.2-1.722-2.32-3.261-3.171-4.291a2.773,2.773,0,0,0-2.494-1.284c-3.3.219-.513,5.431.428,6.939a30.579,30.579,0,0,1,1.862,3.027c-3.047,4.147-6,4.386-6.7,4.172-.8-.249-1.409-1.175-.941-5.033.025-.129.045-.249.07-.383.124-.757.224-1.439.3-2.056,0-.015,0-.025,0-.04v0a16.747,16.747,0,0,0,.189-3.131,5.011,5.011,0,0,0-.647-2.19q-.739-1.449-1.817-1.449-.978,0-1.747,1.384h0c-.03.055-.065.114-.095.174-1.946,3.42-2.17,9.453-2.131,12.251.025,1.777.816,4.226,3.714,4.7a10.1,10.1,0,0,0,3.918-.129,9.57,9.57,0,0,0,2.862-1.045s0,0,.01,0a22.138,22.138,0,0,0,4.948-4.077c1.872,3.007,4.256,5.521,6.74,4.734a6.94,6.94,0,0,0,.652-.244,3.658,3.658,0,0,0,1.329-.876c.941-1.055.433-2.464-.473-3.34A41.211,41.211,0,0,1,227.631,90.27Z" transform="translate(354.358 3273.196)"/><path class="a" d="M326.5,66.554c-.035-1.877-1.035-3.6-2.947-3.6-1.792,0-2.295,1.772-2.23,3.694C321.439,69.939,326.561,69.854,326.5,66.554Z" transform="translate(297.646 3282.376)"/><path class="a" d="M265.286,92.76c-1.3,0-1.917.941-2.136,2.19a7.745,7.745,0,0,0-.095,1.5,2.48,2.48,0,0,0,.055.4,2.257,2.257,0,0,0,1.349,1.762,2.56,2.56,0,0,0,3.773-2.25C268.2,94.492,267.2,92.76,265.286,92.76Z" transform="translate(326.907 3267.406)"/><path class="a" d="M336.587,90.931c.07-.309.134-.612.189-.916.607-3.43,1.3-11.663,1.483-13.062s.229-3.061-.926-4.191-2.464-2.31-3.415-.538c-1.344,2.5-.025,6.74-2.111,9.981-4.366,6.79-4.988,2.041-4.873.672.189-2.285.881-5.6,1.15-7.6.433-3.2-1.473-3.748-2.4-3.5s-1.618,1.638-2.141,3.161a44.482,44.482,0,0,0-1.274,6.088c-.129.174-.254.353-.378.548-2.056,3.266-6.028,6.327-6.4,1.892,0-.274-.01-.533-.03-.772a38.535,38.535,0,0,1,.508-6.78,13.887,13.887,0,0,0,3.933-.543c1.04-.378,1.249-1.5,1.249-2.509,0-1.2-1.688-1.473-4.211-1.374.219-.792.458-1.6.747-2.429.513-1.478-1.18-2.917-2.728-2.663a1.331,1.331,0,0,0-.294.095,2.217,2.217,0,0,0-1.478,1.235h0a15.842,15.842,0,0,0-1.548,4.3c-.309.055-.6.1-.851.154a3.1,3.1,0,0,0-2.18,2.066c-.234,1.045.4,1.588,2.265,1.608h.03a37.721,37.721,0,0,0-.508,5.879c-.9,1.533-3.778,3.923-4.988,3.923a1.578,1.578,0,0,1-.951-.3,1.388,1.388,0,0,1-.473-1.075,22.863,22.863,0,0,1,.553-4.042,25.993,25.993,0,0,0,.5-5.232,5.011,5.011,0,0,0-.647-2.19q-.739-1.449-1.817-1.449-1.822,0-2.907,4.749a38,38,0,0,0-.946,7.318c-5.247,4.445-9.284,1.374-9.209-5.446.08-7.5,3.768-10.927,5.72-12.116s3.684-1.1,3.724-1.707-.3-2.917-4.331-2.529-10.553,5.655-11.27,15.472,4.883,12.754,8.911,12.9a9.217,9.217,0,0,0,7.2-2.917,5.021,5.021,0,0,0,2.643,2.539,3.264,3.264,0,0,0,1.374.289,8.379,8.379,0,0,0,5.9-2.429,20.383,20.383,0,0,0,1.414-1.722c.3,2.569,3.495,7.432,10.752.961.164-.164.329-.324.483-.488.612,2.434,4.241,5.7,10.409.861l-.189,1.787c-.085.687-.184,1.324-.294,1.912-.752.015-1.523.05-2.32.1-7.586.473-10.125,4.112-9.264,6.9s4.415,4.3,8.876,2.738a11.169,11.169,0,0,0,6.262-6.387c4.6.035,7.577.538,7.567-.234C343.074,92.3,340.515,91.29,336.587,90.931ZM332.58,87c.04-.03.03-.02,0,0Zm-7.6,10.389c-.488-.254-1.847-2.459,5.511-3.071.154-.015.309-.025.458-.035C328.842,99.18,325.372,97.592,324.984,97.393Z" transform="translate(316.746 3283.058)"/></g></svg>