<svg xmlns="http://www.w3.org/2000/svg" xmlns:xlink="http://www.w3.org/1999/xlink" width="24" height="24" viewBox="0 0 24 24"><defs><style>.a{fill:none;}.b{clip-path:url(#a);}.c{fill:#78e295;}</style><clipPath id="a"><rect class="a" width="24" height="24"/></clipPath></defs><g class="b"><path class="c" d="M12,24A12,12,0,0,1,0,12.035,12,12,0,0,1,11.965,0a13.123,13.123,0,0,1,2.857.334,1.2,1.2,0,0,1-.563,2.334A10.548,10.548,0,0,0,11.973,2.4,9.6,9.6,0,0,0,5.231,18.807,9.54,9.54,0,0,0,12,21.6h.028A9.6,9.6,0,0,0,21.6,11.973a1.2,1.2,0,0,1,1.2-1.2h0a1.2,1.2,0,0,1,1.2,1.2A12,12,0,0,1,12.035,24Zm0-7.2a1.2,1.2,0,0,1-.848-.351l-3.6-3.6a1.2,1.2,0,0,1,1.7-1.7l2.694,2.694L19.5,5.209a1.2,1.2,0,1,1,1.8,1.582l-8.4,9.6a1.2,1.2,0,0,1-.863.408Z" transform="translate(0)"/></g></svg>