<svg xmlns="http://www.w3.org/2000/svg" width="34.685" height="26.013" viewBox="0 0 34.685 26.013"><defs><style>.a{fill:#eceff1;}.b{fill:#cfd8dc;}.c{fill:#f44336;}</style></defs><rect class="a" width="28.03" height="25.9" transform="translate(3.252 0.113)"/><path class="b" d="M256,156.22l9.812,7.748v-15.3Z" transform="translate(-234.398 -137.955)"/><path class="c" d="M31.433,64H30.349L17.342,74.271,4.336,64H3.252A3.253,3.253,0,0,0,0,67.252v19.51a3.253,3.253,0,0,0,3.252,3.252H4.336V69.736l13.007,10L30.349,69.734v20.28h1.084a3.253,3.253,0,0,0,3.252-3.252V67.252A3.253,3.253,0,0,0,31.433,64Z" transform="translate(0 -64)"/></svg>