<svg xmlns="http://www.w3.org/2000/svg" width="176.18" height="247.348" viewBox="0 0 176.18 247.348"><defs><style>.a{fill:#7b31b2;}.a,.b,.c,.d,.e,.f{fill-rule:evenodd;}.b{fill:#ac45f8;}.c{fill:#191847;}.d{fill:#19c3b9;}.e{fill:#dde3e9;}.f{fill:rgba(0,0,0,0.1);}</style></defs><g transform="translate(0 0)"><g transform="translate(0 0)"><g transform="translate(0 75.336)"><path class="a" d="M139.087-1.526,166.6,90.9l24,66.771h13.683L171.3.306Z" transform="translate(-56.588 1.526)"/><path class="b" d="M95.584,0c-.372,31.084-.1,72.934-.97,74.871q-.867,1.938-53.941,44.153l7.053,11.993q63.011-40.634,66.232-46.048c3.221-5.414,9.407-48.444,17.827-78.181Z" transform="translate(-28.265 1.832)"/><g transform="matrix(0.643, 0.766, -0.766, 0.643, 11.455, 119.316)"><path class="c" d="M0,14.953.712,0H15.665Q26.3,7.477,43.435,12.1v2.848H16.377L7.121,13.529v1.424Z" transform="translate(0 0)"/></g><g transform="translate(132.745 157.059)"><path class="c" d="M0,34.768.712,19.815H15.665q10.635,7.477,27.77,12.1v2.848H16.377L7.121,33.344v1.424Z" transform="translate(0 -19.815)"/></g></g><g transform="translate(39.357)"><path class="d" d="M0,1.589,6.042,0C30.52,17.669,43.172,54.619,72.818,72.186L66.832,81.1C17.913,79.338,1.888,34.319,0,1.589Z" transform="translate(51.995 4.716) rotate(5)"/><path class="e" d="M93.861,81.174h54.48c2.489,0-18.706-48.91-18.706-78.71L113.92,0C100.922,20.9,96.427,46.643,93.861,81.174Z" transform="translate(-68.844 2.502)"/><path class="d" d="M82.675,19.386a8.987,8.987,0,0,1-5.422-4.59C71.509,4.432,73.583-1.275,79.721-3.15s11.612,1.988,21.392,1.988a9.842,9.842,0,0,1,1.462.1l4.919.281c14.115,47.836,11.032,62.968,11.678,95.746H76.293A146.259,146.259,0,0,1,69,109.918H57.315Q55.666,56.585,82.675,19.386Z" transform="translate(-57.22 3.664)"/><path class="f" d="M94.492,104.809q2.023,16.925,6.576,24.567H85.154q4.445-10.366,9.337-24.567Z" transform="translate(-66.082 -30.748)"/></g></g></g></svg>