<svg xmlns="http://www.w3.org/2000/svg" width="60" height="60" viewBox="0 0 60 60"><defs><style>.a{fill:#471e60;}.b{fill:#ff6060;}</style></defs><g transform="translate(-619.001 -567)"><g transform="translate(627.978 622.172)"><path class="a" d="M80.515,473.769l-1.764-2.485a1.172,1.172,0,1,0-1.911,1.356l1.764,2.485a1.172,1.172,0,1,0,1.911-1.356Z" transform="translate(-76.624 -470.791)"/></g><g transform="translate(619.001 585.344)"><path class="a" d="M26.386,196.695l-1.92-9.149a17.254,17.254,0,0,0-7.3-10.832l-4.1-2.756a4.123,4.123,0,0,0-5.226.533V160.374a3.922,3.922,0,0,0-6.377-3.059A3.9,3.9,0,0,0,0,160.374V178.54a11.349,11.349,0,0,0,2.106,6.6L4.2,188.088a1.172,1.172,0,1,0,1.911-1.356l-2.089-2.943a9.018,9.018,0,0,1-1.673-5.248V160.374a1.579,1.579,0,1,1,3.158,0v14.413a8.186,8.186,0,0,0,2.111,5.5c.058.07.118.139.182.206.778.824,1.693,1.8,2.554,2.712l1.206,1.284.012.012,1.809,1.925a1.172,1.172,0,1,0,1.708-1.6c-.021-.023-1.393-1.483-2.959-3.148L9.439,178.81l-.02-.022a1.977,1.977,0,0,1,.038-2.591,1.771,1.771,0,0,1,2.306-.294l4.1,2.756a14.922,14.922,0,0,1,6.311,9.369l1.92,9.149a1.172,1.172,0,1,0,2.293-.481Z" transform="translate(-0.001 -156.451)"/></g><g transform="translate(625.548 618.749)"><path class="a" d="M58.017,442.077l-.008-.011a1.172,1.172,0,0,0-1.907,1.361l.008.011a1.172,1.172,0,0,0,1.907-1.361Z" transform="translate(-55.884 -441.575)"/></g><g transform="translate(652.591 585.344)"><path class="a" d="M311.523,157.318a3.922,3.922,0,0,0-6.377,3.059v14.117a4.123,4.123,0,0,0-5.226-.533l-4.1,2.756a17.253,17.253,0,0,0-7.3,10.832l-1.92,9.149a1.172,1.172,0,1,0,2.293.481l1.92-9.149a14.923,14.923,0,0,1,6.311-9.369l4.1-2.756a1.771,1.771,0,0,1,2.306.294,1.977,1.977,0,0,1,.041,2.588l-.022.025-5.645,6.007a1.172,1.172,0,1,0,1.708,1.6c.016-.017,4.8-5.107,5.581-5.932.063-.067.123-.136.182-.206a8.187,8.187,0,0,0,2.111-5.5V160.377a1.579,1.579,0,1,1,3.158,0v18.166a9.018,9.018,0,0,1-1.673,5.248l-8.852,12.469a1.172,1.172,0,1,0,1.911,1.356l8.852-12.469a11.349,11.349,0,0,0,2.106-6.6V160.377A3.9,3.9,0,0,0,311.523,157.318Z" transform="translate(-286.58 -156.454)"/></g><g transform="translate(629.949 573.327)"><path class="a" d="M127.281,70.128l-2.084-.5v-.374a5.24,5.24,0,0,0,2.243-4.3V62.25a5.239,5.239,0,0,0-8.646-3.985,6.841,6.841,0,0,0-12.679.009,5.239,5.239,0,0,0-8.657,3.976v2.71a5.24,5.24,0,0,0,2.243,4.3v.374l-2.084.5a5.489,5.489,0,0,0-4.227,5.356v2.188a1.172,1.172,0,0,0,1.172,1.172h5.384c-.008.142-.014.285-.014.429v4.213a1.172,1.172,0,0,0,1.172,1.172h7.042a1.172,1.172,0,1,0,0-2.343h-1.21V79.892a1.172,1.172,0,1,0-2.343,0v2.421h-2.317V79.272a4.851,4.851,0,0,1,3.732-4.732l3.215-.77,2.152,4.9a1.172,1.172,0,0,0,1.072.7h0a1.172,1.172,0,0,0,1.072-.7l2.149-4.888,3.2.766a4.85,4.85,0,0,1,3.735,4.733v3.038h-2.317V79.892a1.172,1.172,0,0,0-2.343,0v2.421H116.62a1.172,1.172,0,0,0,0,2.343h7.16a1.172,1.172,0,0,0,1.172-1.172V79.276c0-.145-.006-.289-.014-.432h5.4a1.172,1.172,0,0,0,1.172-1.172V75.484A5.488,5.488,0,0,0,127.281,70.128ZM122.2,59.35a2.9,2.9,0,0,1,2.894,2.709h-1.629a8.54,8.54,0,0,1-3.928-.957A2.9,2.9,0,0,1,122.2,59.35Zm-2.9,5.439c0-.057,0-.114,0-.171V63.574a10.883,10.883,0,0,0,4.161.828H125.1v.558a2.9,2.9,0,1,1-5.8,0Zm-11.339-3.946h0a4.5,4.5,0,0,1,8.943-.715l-1.972-1.159a1.171,1.171,0,0,0-1.491.258,5.048,5.048,0,0,1-3.878,1.81h-1.6ZM102.7,59.35a2.9,2.9,0,0,1,2.663,1.752,8.54,8.54,0,0,1-3.928.957H99.808A2.9,2.9,0,0,1,102.7,59.35ZM99.8,64.4h1.635a10.884,10.884,0,0,0,4.166-.83V64.96a2.9,2.9,0,0,1-5.8,0Zm5.659,7.86a7.185,7.185,0,0,0-4.979,4.239H95.733V75.484a3.153,3.153,0,0,1,2.428-3.077l2.984-.713a1.172,1.172,0,0,0,.9-1.139v-.394a5.085,5.085,0,0,0,1.31,0V70.5c0,.017,0,.035,0,.052a1.173,1.173,0,0,0,.952,1.153l1.748.419Zm3.268-1.819a5.5,5.5,0,0,0-.938-.316l-2.093-.5V69.26a5.286,5.286,0,0,0,1.015-.928,6.9,6.9,0,0,0,2.016,2.02Zm5.088,1.721-1.371,3.118-1.374-3.126V71.32a6.866,6.866,0,0,0,2.745,0Zm-1.361-3.047a4.505,4.505,0,0,1-4.5-4.5V63.38h1.6a7.382,7.382,0,0,0,4.978-1.923l2.416,1.42v1.913A4.5,4.5,0,0,1,112.456,69.118Zm3.7,1.329v-.079a6.9,6.9,0,0,0,2.032-2.025,5.285,5.285,0,0,0,1.007.918v.365l-2.093.5A5.518,5.518,0,0,0,116.16,70.447Zm13,6.054H124.4a7.184,7.184,0,0,0-4.982-4.236l-.588-.14,1.757-.421a1.173,1.173,0,0,0,.957-1.154c0-.009,0-.018,0-.028v-.359a5.085,5.085,0,0,0,1.31,0v.394a1.172,1.172,0,0,0,.9,1.14l2.984.713a3.153,3.153,0,0,1,2.428,3.077Z" transform="translate(-93.39 -54)"/></g><g transform="translate(647.829 601.649)"><path class="a" d="M248,296.012a1.172,1.172,0,1,0,.343.829A1.181,1.181,0,0,0,248,296.012Z" transform="translate(-246 -295.67)"/></g><g transform="translate(647.828 567)"><path class="b" d="M247.165,0a1.172,1.172,0,0,0-1.172,1.172V2.925a1.172,1.172,0,0,0,2.343,0V1.172A1.172,1.172,0,0,0,247.165,0Z" transform="translate(-245.993)"/></g><g transform="translate(641.454 569.251)"><path class="b" d="M194.828,20.784,193.6,19.556a1.172,1.172,0,1,0-1.656,1.658l1.229,1.228a1.172,1.172,0,1,0,1.656-1.658Z" transform="translate(-191.599 -19.213)"/></g><g transform="translate(652.956 569.281)"><path class="b" d="M292.965,19.812a1.172,1.172,0,0,0-1.657,0l-1.219,1.221a1.172,1.172,0,1,0,1.658,1.656l1.22-1.221A1.172,1.172,0,0,0,292.965,19.812Z" transform="translate(-289.746 -19.469)"/></g></g></svg>