<svg xmlns="http://www.w3.org/2000/svg" xmlns:xlink="http://www.w3.org/1999/xlink" width="26.013" height="26.013" viewBox="0 0 26.013 26.013"><defs><style>.a{fill:url(#a);}.b{fill:#fff;}.c{opacity:0.07;}.d{fill:#fefefe;}.e{opacity:0.05;}</style><linearGradient id="a" x1="0.5" x2="0.5" y2="1" gradientUnits="objectBoundingBox"><stop offset="0" stop-color="#33bef0"/><stop offset="1" stop-color="#0a85d9"/></linearGradient></defs><ellipse class="a" cx="13.007" cy="13.007" rx="13.007" ry="13.007" transform="translate(0 0)"/><path class="b" d="M20.454,17h-7.8a.651.651,0,0,0-.65.65v6.5c0,1.437,1.165,1.951,2.6,1.951h7.8a.651.651,0,0,0,.65-.65V19.6A2.6,2.6,0,0,0,20.454,17Z" transform="translate(-6.797 -8.546)"/><path class="c" d="M20.28,16.5h-7.8a.977.977,0,0,0-.976.976v6.5c0,1.613,1.313,2.276,2.927,2.276h7.8a.977.977,0,0,0,.976-.976V19.427A2.93,2.93,0,0,0,20.28,16.5Zm2.6,8.78a.651.651,0,0,1-.65.65h-7.8c-1.437,0-2.6-.514-2.6-1.951v-6.5a.651.651,0,0,1,.65-.65h7.8a2.6,2.6,0,0,1,2.6,2.6Z" transform="translate(-6.622 -8.371)"/><path class="d" d="M31,20.1V23.38a.651.651,0,0,0,.244.508l2.479,1.984a.326.326,0,0,0,.529-.254V17.865a.325.325,0,0,0-.528-.254l-2.479,1.984A.649.649,0,0,0,31,20.1Z" transform="translate(-13.441 -8.734)"/><path class="c" d="M33.751,17.364a.325.325,0,0,1,.326.326v7.752a.326.326,0,0,1-.326.326.317.317,0,0,1-.2-.072L31.07,23.712a.649.649,0,0,1-.245-.508V19.927a.651.651,0,0,1,.244-.508l2.479-1.984a.326.326,0,0,1,.2-.072m0-.325a.642.642,0,0,0-.4.143l-2.479,1.984a.97.97,0,0,0-.366.762V23.2a.97.97,0,0,0,.366.762l2.479,1.984a.642.642,0,0,0,.4.143.652.652,0,0,0,.652-.651V17.69a.652.652,0,0,0-.652-.651Z" transform="translate(-13.266 -8.559)"/><path class="e" d="M26.932,16.351a.964.964,0,0,0-.608.215l-2.479,1.984a1.294,1.294,0,0,0-.488,1.016v-.313A3.255,3.255,0,0,0,20.1,16H12.3A1.3,1.3,0,0,0,11,17.3v6.5c0,1.793,1.459,2.6,3.252,2.6h7.8a1.3,1.3,0,0,0,1.3-1.3V22.841a1.3,1.3,0,0,0,.488,1.016l2.479,1.984a.964.964,0,0,0,.608.215.978.978,0,0,0,.977-.976V17.327A.978.978,0,0,0,26.932,16.351Zm-3.9,8.754a.977.977,0,0,1-.976.976h-7.8c-1.613,0-2.927-.663-2.927-2.276V17.3a.977.977,0,0,1,.976-.976h7.8a2.93,2.93,0,0,1,2.927,2.927Zm4.552-.026a.652.652,0,0,1-.652.651.642.642,0,0,1-.4-.143L24.048,23.6a.97.97,0,0,1-.366-.762V19.564a.97.97,0,0,1,.366-.762l2.479-1.984a.642.642,0,0,1,.4-.143.652.652,0,0,1,.652.651Z" transform="translate(-6.448 -8.196)"/></svg>