<svg xmlns="http://www.w3.org/2000/svg" xmlns:xlink="http://www.w3.org/1999/xlink" width="28.904" height="26.013" viewBox="0 0 28.904 26.013"><defs><style>.a{fill:#28a8ea;}.b{fill:#0078d4;}.c{fill:#50d9ff;}.d{opacity:0.05;}.e{opacity:0.07;}.f{opacity:0.09;}.g{fill:url(#a);}.h{fill:#fff;}</style><linearGradient id="a" x1="0.036" y1="0.036" x2="0.985" y2="0.985" gradientUnits="objectBoundingBox"><stop offset="0" stop-color="#1683d9"/><stop offset="1" stop-color="#0b66cb"/></linearGradient></defs><path class="a" d="M33.086,7.445V14.5a2.162,2.162,0,0,1-.637,1.533L17.057,31.378a2.177,2.177,0,0,1-1.538.635H8.449A1.447,1.447,0,0,1,7,30.568v-7.05a2.162,2.162,0,0,1,.637-1.533L23.029,6.635A2.177,2.177,0,0,1,24.567,6h7.07A1.447,1.447,0,0,1,33.086,7.445Z" transform="translate(-4.182 -6)"/><path class="b" d="M37.682,28.4v6.876a1.409,1.409,0,0,1-1.409,1.409H29.4a2.107,2.107,0,0,1-1.491-.618l-2.9-2.9V27.523A3.523,3.523,0,0,1,28.523,24h5.636l2.9,2.9A2.108,2.108,0,0,1,37.682,28.4Z" transform="translate(-8.778 -10.668)"/><path class="c" d="M7,14.285V7.409A1.409,1.409,0,0,1,8.409,6h6.876a2.107,2.107,0,0,1,1.491.618l2.9,2.9v5.636a3.523,3.523,0,0,1-3.523,3.523H10.523l-2.9-2.9A2.108,2.108,0,0,1,7,14.285Z" transform="translate(-4.182 -6)"/><path class="d" d="M17.088,13H7V29.909H17.088a2.593,2.593,0,0,0,2.593-2.593V15.593A2.593,2.593,0,0,0,17.088,13Z" transform="translate(-4.182 -7.418)"/><path class="e" d="M17.014,29.3H7V13.333H17.014a2.2,2.2,0,0,1,2.2,2.2V27.1A2.2,2.2,0,0,1,17.014,29.3Z" transform="translate(-4.182 -7.809)"/><path class="f" d="M16.938,29.347H7V13.667h9.938a1.844,1.844,0,0,1,1.8,1.882V27.465A1.843,1.843,0,0,1,16.938,29.347Z" transform="translate(-4.182 -8.265)"/><path class="g" d="M15.682,28.741H4.409A1.442,1.442,0,0,1,3,27.267V15.474A1.442,1.442,0,0,1,4.409,14H15.682a1.442,1.442,0,0,1,1.409,1.474V27.267A1.442,1.442,0,0,1,15.682,28.741Z" transform="translate(-3 -8.364)"/><path class="h" d="M14.169,20.145H11.127v1.778h2.847v1.14H11.127V24.91h3.2v1.135H9.747V19h4.422Z" transform="translate(-4.848 -9.516)"/></svg>