<svg xmlns="http://www.w3.org/2000/svg" xmlns:xlink="http://www.w3.org/1999/xlink" width="20.16" height="26.013" viewBox="0 0 20.16 26.013"><defs><style>.a{fill:url(#a);}.b{fill:url(#b);}.c{fill:url(#c);}</style><linearGradient id="a" x1="0.5" y1="0.069" x2="0.5" y2="0.918" gradientUnits="objectBoundingBox"><stop offset="0" stop-color="#e68e00"/><stop offset="0.036" stop-color="#e38400"/><stop offset="0.171" stop-color="#db6200"/><stop offset="0.299" stop-color="#d44a00"/><stop offset="0.417" stop-color="#d03b00"/><stop offset="0.515" stop-color="#cf3600"/><stop offset="0.878" stop-color="#d22900"/><stop offset="1" stop-color="#d42400"/></linearGradient><linearGradient id="b" x1="0.061" y1="-0.005" x2="1.07" y2="0.675" gradientUnits="objectBoundingBox"><stop offset="0" stop-color="#f52537"/><stop offset="0.293" stop-color="#f32536"/><stop offset="0.465" stop-color="#ea2434"/><stop offset="0.605" stop-color="#dc2231"/><stop offset="0.729" stop-color="#c8202c"/><stop offset="0.841" stop-color="#ae1e25"/><stop offset="0.944" stop-color="#8f1a1d"/><stop offset="1" stop-color="#7a1818"/></linearGradient><linearGradient id="c" x1="-0.131" y1="0.913" x2="0.894" y2="-0.072" gradientUnits="objectBoundingBox"><stop offset="0" stop-color="#d96ab1"/><stop offset="0.137" stop-color="#d9538b"/><stop offset="0.495" stop-color="#d91a2a"/><stop offset="0.575" stop-color="#d31a29"/><stop offset="0.68" stop-color="#c21926"/><stop offset="0.8" stop-color="#a71821"/><stop offset="0.929" stop-color="#811619"/><stop offset="1" stop-color="#691515"/></linearGradient></defs><path class="a" d="M31.829,6.213a2.745,2.745,0,0,1,2.027,2.638V25.215a2.746,2.746,0,0,1-2.06,2.644L24.29,29.965,26.7,24.851V8.593L24.655,4.115Z" transform="translate(-13.696 -4.04)"/><path class="b" d="M22.755,35v2.554a3.13,3.13,0,0,1-4.565,2.921L13.68,37.584a1.41,1.41,0,0,1-.627-1.6A1.366,1.366,0,0,1,14.375,35Z" transform="translate(-9.748 -14.839)"/><path class="c" d="M17.07,4.342,9.315,8.755A2.6,2.6,0,0,0,8,11.016V23a1.157,1.157,0,0,0,1.72,1.011l2.908-1.62a1.119,1.119,0,0,0,.574-.977V12.937a2.054,2.054,0,0,1,1.277-1.918l6.527-2.267V6.743A2.659,2.659,0,0,0,17.07,4.342Z" transform="translate(-8 -3.999)"/></svg>