<svg xmlns="http://www.w3.org/2000/svg" xmlns:xlink="http://www.w3.org/1999/xlink" width="730.101" height="522.125" viewBox="0 0 730.101 522.125"><defs><style>.a,.s{fill:url(#a);}.b,.v{fill:#ffd2cc;}.c{fill:#b98781;}.br,.bs,.bt,.d{fill:none;}.e{fill:url(#b);}.f{fill:#f2a19c;}.aa,.bp,.bx,.g{stroke:rgba(0,0,0,0);}.bp,.g{fill:url(#c);}.bn,.bu,.h{fill:#eda09c;}.h{opacity:0.046;}.i{fill:url(#e);}.j{fill:url(#f);}.ap,.bb,.bd,.bq,.k{fill:#fff;}.ar,.as,.bc,.l{fill:#ac45f8;}.l{opacity:0.474;}.m{fill:url(#g);}.n{fill:#97b6e6;}.o{fill:#7b31b2;}.p{fill:#f0c9cf;}.q{fill:#1f2251;}.r{clip-path:url(#i);}.am,.be,.bg,.bi,.bn,.bp,.by,.s,.v,.y{mix-blend-mode:multiply;}.am,.ap,.ar,.bb,.be,.bg,.bi,.bn,.bp,.by,.s,.v,.y{isolation:isolate;}.t{fill:url(#k);}.u{opacity:0.405;clip-path:url(#l);}.w{fill:url(#m);}.x{opacity:0.397;clip-path:url(#n);}.y{fill:#ffbcb6;opacity:0.388;}.z{opacity:0.703;}.aa{fill:#ff7d69;stroke-miterlimit:10;}.ab,.af{fill:#b14444;}.ac{fill:#cc4d4d;}.ad{clip-path:url(#o);}.ae,.by{fill:#95bde5;}.af{opacity:0.34;}.ag{fill:url(#p);}.ah{clip-path:url(#r);}.ai{fill:rgba(229,88,88,0.43);}.aj{fill:#2848bd;}.ak{fill:url(#s);}.al{fill:#172182;}.am{fill:#ff978c;opacity:0.223;}.an,.ca{fill:#ff6060;}.ao{fill:#372f8e;}.ap{opacity:0.3;}.aq{fill:#fff5f5;}.ar{opacity:0.1;}.at{fill:#ff7979;}.au{fill:url(#u);}.av{fill:#978fed;}.aw{fill:url(#v);}.ax{fill:url(#w);}.ay{fill:url(#x);}.az{fill:url(#y);}.ba{fill:#bf69ff;}.bb{opacity:0.4;}.bc,.bd{fill-rule:evenodd;}.be{fill:url(#z);}.bf{clip-path:url(#ab);}.bg{fill:#f29d98;opacity:0.112;}.bh{clip-path:url(#ad);}.bi{fill:#f2b5b0;opacity:0.192;}.bj{fill:#faf8f8;}.bk{fill:#3f1a57;}.bl{fill:url(#ae);}.bm{opacity:0.201;clip-path:url(#af);}.bo{clip-path:url(#ah);}.bp{opacity:0.186;}.bq{stroke:#392d40;}.bq,.bs,.bt{stroke-linecap:round;}.br,.bs{stroke:#ff6060;}.bt{stroke:#4c2c64;opacity:0.498;}.bv,.bz{fill:#471e60;}.bw{fill:#2a1756;opacity:0.333;}.bx{fill:url(#ak);}.bz,.ca{font-size:14px;font-family:Poppins-SemiBold, Poppins;font-weight:600;}.cb{filter:url(#an);}.cc{filter:url(#al);}</style><linearGradient id="a" x1="0.054" y1="1.596" x2="0.5" y2="0.5" gradientUnits="objectBoundingBox"><stop offset="0" stop-color="#ffe08b"/><stop offset="1" stop-color="#ff6060"/></linearGradient><linearGradient id="b" x1="0.5" y1="1" x2="0.909" y2="-0.706" gradientUnits="objectBoundingBox"><stop offset="0" stop-color="#e55858"/><stop offset="1" stop-color="#ff9973"/></linearGradient><linearGradient id="c" x1="0.852" y1="0.291" x2="0.636" y2="-0.562" gradientUnits="objectBoundingBox"><stop offset="0" stop-color="#f0c4be"/><stop offset="1" stop-color="#ff6060"/></linearGradient><linearGradient id="e" x1="-0.168" y1="0.512" x2="1.327" y2="0.482" gradientUnits="objectBoundingBox"><stop offset="0" stop-color="#fff"/><stop offset="1" stop-color="#c2dbff"/></linearGradient><linearGradient id="f" x1="0.302" y1="0.514" x2="0.353" y2="0.51" gradientUnits="objectBoundingBox"><stop offset="0" stop-color="#7025ac"/><stop offset="1" stop-color="#d7a6fc"/></linearGradient><linearGradient id="g" x1="0.492" y1="-0.238" x2="0.5" y2="0.505" gradientUnits="objectBoundingBox"><stop offset="0" stop-color="#fff"/><stop offset="1" stop-color="#f7fbff"/></linearGradient><clipPath id="i"><path class="a" d="M804.316,398.171c-12.854-9.7-2.411-19.522,6.308-28.588,3.455-3.592,18.409-14.137,26.328-4.249,4.96-1.448,9.364.551,12.979,11.393,4.515,13.54.5,20.024.889,31.739l-38.326-13.045Z" transform="translate(-798.3 -361.212)"/></clipPath><linearGradient id="k" x1="0.5" y1="0.027" x2="-0.227" y2="1" gradientUnits="objectBoundingBox"><stop offset="0" stop-color="#ffb0a1"/><stop offset="1" stop-color="#ff8e8c"/></linearGradient><clipPath id="l"><path class="b" d="M854.656,420.656c4.422-3.205,6.158-4.344,6.159-4.344.338-1.763-.256-5.607,2.992-6.961,6.369-2.655,7.565,12.524,4.3,12.788-4.2.339,4.239,17.158,13.843,22.054,5.957,3.037-21.3,12.6-28.256,11.381-12.05-2.1.128-20.241-8.021-25.951C842.673,427.52,848.574,421.091,854.656,420.656Z" transform="translate(-844.868 -409.039)"/></clipPath><linearGradient id="m" x1="0.277" y1="0.99" x2="0.521" y2="-0.018" gradientUnits="objectBoundingBox"><stop offset="0" stop-color="#ffcdc1"/><stop offset="1" stop-color="#ffa7a7"/></linearGradient><clipPath id="n"><path class="c" d="M841.88,411.94c5.313,6.8,13.671,6.956,10.375,14.185-4.844,10.623-7.082,11.19-12.378,12.888-5.18,1.661-14.336-7.319-15.738-9.861-2.8-5.072-2.921-8.143-4.1-10.454-1.325-2.6-2.628-2.5-3.66-8.035a22.067,22.067,0,0,0,8.8-5.634c2.406-2.534,5.551-2.708,9.228-1.025C838.16,405.723,838.082,407.08,841.88,411.94Z" transform="translate(-816.38 -402.902)"/></clipPath><clipPath id="o"><path class="d" d="M834.748,444.744c5.266,4.881,5.038,6.5,4.8,10.4s11.054,9.776,19.825,3.861c4.625-3.119,4.832-7.952,2.286-11.734s-9.989-13.6-9.989-13.6Z" transform="translate(-834.748 -433.671)"/></clipPath><linearGradient id="p" x1="0.5" y1="1" x2="0.909" y2="-0.706" gradientUnits="objectBoundingBox"><stop offset="0" stop-color="#ff6060"/><stop offset="1" stop-color="#ff9973"/></linearGradient><clipPath id="r"><path class="e" d="M907.337,481.949c-24.1,12.517-20.87,55.548-22.412,61.168s-6.515,8.262-5.549,11.617-.15,6.405-5.609,6.427c-7.32.029-.466,28.128,16.185,28.148s16.155-5.784,15.869-10.129c-.5-7.627,5.565-9.795,3.614-13.757s-.94-5.851,2.327-8.554a7.733,7.733,0,0,0,2.548-6.853s5.943-20.025,10-39.317C928.715,489.741,910.462,480.326,907.337,481.949Z" transform="translate(-870.852 -481.77)"/></clipPath><linearGradient id="s" x1="0.277" y1="0.99" x2="0.521" y2="-0.018" gradientUnits="objectBoundingBox"><stop offset="0" stop-color="#ffcdc1"/><stop offset="1" stop-color="#f5a5a5"/></linearGradient><linearGradient id="u" x1="-15.637" y1="9.668" x2="-15.629" y2="9.684" gradientUnits="objectBoundingBox"><stop offset="0" stop-color="#d4c4ff"/><stop offset="1" stop-color="#e4f6ff"/></linearGradient><linearGradient id="v" x1="-10.743" y1="11.916" x2="-10.747" y2="11.877" gradientUnits="objectBoundingBox"><stop offset="0" stop-color="#ffc5a2"/><stop offset="1" stop-color="#fa96b9" stop-opacity="0.51"/></linearGradient><linearGradient id="w" x1="6.809" y1="6.815" x2="-0.754" y2="-0.755" gradientUnits="objectBoundingBox"><stop offset="0.05" stop-color="#ffd521"/><stop offset="0.501" stop-color="#f50000"/><stop offset="0.95" stop-color="#b900b4"/></linearGradient><linearGradient id="x" x1="0.991" y1="0.991" x2="0.083" y2="0.082" xlink:href="#w"/><linearGradient id="y" x1="1.456" y1="1.456" x2="-0.313" y2="-0.313" xlink:href="#w"/><linearGradient id="z" x1="-0.178" y1="0.713" x2="0.6" y2="0.461" xlink:href="#e"/><clipPath id="ab"><path class="f" d="M1340.969,689.344c11.045,12.722,28.252,46.32,29.134,47.245,3.954,4.153,15.432-2.276,12.987-5.817-13.311-19.278-27.26-86.982-40.866-93.5-12.041-5.766-90.637-36.787-90.637-36.787l-12.27,28.336,88.175,26.58S1330.772,677.6,1340.969,689.344Z" transform="translate(-1239.317 -600.488)"/></clipPath><clipPath id="ad"><path class="g" d="M1170.6,620.546c.463,23.013,21.916,36.9,40.083,38.573,23.725,2.189,66.574,13.23,70.556,16.4s.285-.829-3.431,22.264c-2.826,17.566,13.862,41.477,8.248,68.949-1.093,5.348,15.63,5.353,15.63,2.584,0-15.835,3.726-78.926,7.053-94.585,3.486-16.406-6.65-20.256-19-26.715-7.034-3.679-62.757-27.119-60.1-31.094,6.855-10.243-3.576-17.377-3.576-17.377l-48.094-1.6S1170.482,614.6,1170.6,620.546Z" transform="translate(-1170.6 -597.945)"/></clipPath><linearGradient id="ae" x1="0.684" y1="0.59" x2="0.5" y2="-0.723" gradientUnits="objectBoundingBox"><stop offset="0" stop-color="#ffcbc4"/><stop offset="1" stop-color="#ff6060"/></linearGradient><clipPath id="af"><path class="h" d="M11.056,11.7C11.056,5.438,10,5.873,10,5.873c-.572-1.767.241-4.842-3.03-5.737C.556-1.619,1.58,14.233,4.712,14,8.741,13.7.051,25.968.051,25.968-1.269,30.517,23.557,36.9,23.557,36.9c-.934-6.541,2.552-13.973,3.486-18.646C27.762,14.657,16.884,11.2,11.056,11.7Z"/></clipPath><clipPath id="ah"><path class="g" d="M4.55,10.566C1.263,25.319-2.586,30.681,2.371,38.039c7.285,10.815,9.914,11.067,16.2,12.055,6.144.966,15.5-12.859,17.131-15.69,2.593-4.51.554-4.924,1.867-9.763.844-3.11-4.691-2.276-3.7-8.44C36.5-.228,8.579-7.518,4.55,10.566Z"/></clipPath><linearGradient id="ak" x1="0.176" y1="0" x2="1.637" y2="-1.879" xlink:href="#c"/><filter id="al" x="488.975" y="60.991" width="241.126" height="121.026" filterUnits="userSpaceOnUse"><feOffset dy="3" input="SourceAlpha"/><feGaussianBlur stdDeviation="10" result="am"/><feFlood flood-color="#ac45f8" flood-opacity="0.102"/><feComposite operator="in" in2="am"/><feComposite in="SourceGraphic"/></filter><filter id="an" x="41.691" y="0" width="254.988" height="121.026" filterUnits="userSpaceOnUse"><feOffset dy="3" input="SourceAlpha"/><feGaussianBlur stdDeviation="10" result="ao"/><feFlood flood-color="#ac45f8" flood-opacity="0.102"/><feComposite operator="in" in2="ao"/><feComposite in="SourceGraphic"/></filter></defs><g transform="translate(-584.405 -155.42)"><path class="i" d="M1124.266,794.978l-94.474,2.919,14.113-5.144a7.793,7.793,0,0,0,0-14.645L905.579,727.731a48.776,48.776,0,0,0-33.371,0L553.916,843.746a7.792,7.792,0,0,0,0,14.645l138.326,50.377a48.768,48.768,0,0,0,33.371,0l186.354-67.926,171.065,1.13-1.174-10.19-121.788-8.475,25.846-9.421c39.918-1.279,102.786-3.178,124.339-3.178,11.72,0,30.666,7.576,48.975,3.583,1.661-.362,2.364-5.373,0-7.581C1152.126,800.072,1124.266,794.978,1124.266,794.978Z" transform="translate(35.617 -234.167)"/><g transform="translate(704.233 376.843)"><path class="j" d="M698.243,696.748V696.1l.011-14.5,20.67-1.775L1025.4,567.968a52.892,52.892,0,0,1,36.192,0L1195.7,616.811l14.45-1.241v15.356h-.013a11.883,11.883,0,0,1-7.951,10.993l-319.98,116.77a52.9,52.9,0,0,1-36.192,0l-139.543-50.82a12.273,12.273,0,0,1-8.207-11.121Z" transform="translate(-698.243 -551.589)"/><path class="k" d="M706.473,687.975l139.543,50.82a52.9,52.9,0,0,0,36.192,0l319.98-116.771a12.1,12.1,0,0,0,0-22.747l-140.593-51.2a52.9,52.9,0,0,0-36.192,0L706.475,664.464A12.51,12.51,0,0,0,706.473,687.975Z" transform="translate(-698.243 -544.202)"/><path class="l" d="M706.473,686.888l139.543,50.82a52.9,52.9,0,0,0,36.192,0l319.98-116.77a12.1,12.1,0,0,0,0-22.747l-140.593-51.2a52.9,52.9,0,0,0-36.192,0L706.475,663.377A12.511,12.511,0,0,0,706.473,686.888Z" transform="translate(-698.243 -543.798)"/><path class="m" d="M712.8,683.77,851.13,734.147a48.775,48.775,0,0,0,33.371,0l318.292-116.019a7.793,7.793,0,0,0,0-14.645L1064.468,553.11a48.768,48.768,0,0,0-33.371,0L712.8,669.125A7.793,7.793,0,0,0,712.8,683.77Z" transform="translate(-701.746 -546.163)"/><g transform="translate(42.43 124.242)"><g transform="translate(5.641)"><path class="n" d="M778.728,744.513l-4.016-1.467,4.387-1.611,4.016,1.466Zm-2.755-1.488,2.811,1.026,3.071-1.128-2.811-1.026Z" transform="translate(-774.712 -741.435)"/></g><g transform="translate(10.854 1.903)"><path class="n" d="M787.022,747.54l-4.017-1.466,4.387-1.612,4.017,1.467Zm-2.756-1.488,2.811,1.027,3.071-1.128-2.811-1.026Z" transform="translate(-783.005 -744.462)"/></g><g transform="translate(41.74 13.177)"><path class="n" d="M836.153,765.475l-4.016-1.466,4.387-1.612,4.016,1.467Zm-2.755-1.487,2.811,1.026,3.071-1.128-2.811-1.026Z" transform="translate(-832.137 -762.397)"/></g><g transform="translate(31.626 13.348)"><path class="n" d="M820.064,765.746l-4.016-1.467,4.387-1.611,4.016,1.466Zm-2.755-1.488,2.811,1.026,3.071-1.128-2.811-1.026Z" transform="translate(-816.048 -762.668)"/></g><g transform="translate(0 2.072)"><path class="n" d="M769.755,747.809l-4.016-1.466,4.387-1.612,4.017,1.466ZM767,746.321l2.811,1.026,3.071-1.128-2.811-1.027Z" transform="translate(-765.739 -744.731)"/></g><g transform="translate(5.213 3.975)"><path class="n" d="M778.049,750.836l-4.017-1.466,4.387-1.612,4.016,1.467Zm-2.756-1.488,2.811,1.027,3.071-1.128-2.811-1.026Z" transform="translate(-774.032 -747.758)"/></g><g transform="translate(37.391 12.131)"><path class="n" d="M825.821,762.913l-.6-.22a11.727,11.727,0,0,1,4.621-.568l-3.151-1.15.658-.242,4.927,1.8-.62.254A10.228,10.228,0,0,0,825.821,762.913Z" transform="translate(-825.218 -760.732)"/></g><g transform="translate(36.685 11.334)"><path class="n" d="M828.846,760.486l-1.791-.654-1.956.719,1.791.654Z" transform="translate(-824.469 -759.601)"/><path class="n" d="M826.49,761.3l-2.394-.874,2.615-.961,2.394.874Zm-1.133-.9,1.188.433,1.3-.477-1.188-.434Z" transform="translate(-824.096 -759.465)"/></g><g transform="translate(99.892 33.545)"><path class="n" d="M929.392,795.817l-1.791-.654-1.956.719,1.791.654Z" transform="translate(-925.014 -794.932)"/><path class="n" d="M927.036,796.63l-2.394-.874,2.614-.961,2.394.874Zm-1.133-.9,1.188.434,1.3-.477-1.188-.433Z" transform="translate(-924.642 -794.796)"/></g><g transform="translate(102.544 34.515)"><path class="n" d="M936.652,799.426l-7.792-2.845.658-.242,7.793,2.845Z" transform="translate(-928.86 -796.339)"/></g><g transform="translate(103.008 37.594)"><path class="n" d="M934.349,802.258l-1.791-.654-1.956.719,1.791.654Z" transform="translate(-929.971 -801.373)"/><path class="n" d="M931.993,803.071,929.6,802.2l2.614-.961,2.394.874Zm-1.133-.9,1.188.434,1.3-.477-1.188-.434Z" transform="translate(-929.599 -801.237)"/></g><g transform="translate(97.027 35.412)"><path class="n" d="M929.418,801.416l-9.334-3.407.658-.242,9.334,3.407Z" transform="translate(-920.083 -797.767)"/></g><g transform="translate(94.394 37.248)"><path class="n" d="M920.646,801.708l-1.791-.654-1.956.719,1.791.654Z" transform="translate(-916.268 -800.823)"/><path class="n" d="M918.289,802.521l-2.393-.874,2.615-.96,2.394.874Zm-1.133-.9,1.188.434,1.3-.477-1.188-.434Z" transform="translate(-915.896 -800.687)"/></g><g transform="translate(93.29 36.847)"><path class="n" d="M923.389,803.667l-9.25-3.377.658-.242,9.25,3.377Z" transform="translate(-914.139 -800.049)"/></g><g transform="translate(135.641 46.825)"><path class="n" d="M987.794,818.457l-6.284-2.294.658-.242,6.284,2.294Z" transform="translate(-981.51 -815.922)"/></g><g transform="translate(129.964 46.677)"><path class="n" d="M981.812,819.335l-9.334-3.408.658-.242,9.334,3.407Z" transform="translate(-972.478 -815.686)"/></g><g transform="translate(127.379 47.626)"><path class="n" d="M977.7,820.845l-9.334-3.407.658-.242,9.334,3.407Z" transform="translate(-968.367 -817.196)"/></g><g transform="translate(124.879 48.606)"><path class="n" d="M973.64,822.374,964.39,819l.658-.242,9.25,3.377Z" transform="translate(-964.39 -818.755)"/></g></g><g transform="translate(95.134 140.601)"><ellipse class="o" cx="18.368" cy="9.098" rx="18.368" ry="9.098"/><path class="k" d="M866.318,781.393l1.385.532,13.6-4.872-1.385-.532Z" transform="translate(-855.794 -770.824)"/><path class="k" d="M867.3,777.454l1.406-.6,12.959,4.387-1.406.6Z" transform="translate(-856.161 -770.947)"/></g><path class="n" d="M808.969,787.486l1.273-.545,49.783,17.891-1.272.545Z" transform="translate(-739.363 -634.092)"/></g><g transform="translate(654.975 262.063)"><g transform="matrix(-0.995, 0.105, -0.105, -0.995, 114.243, 375.088)"><g transform="translate(75.033 46.103) rotate(174)"><path class="p" d="M4.858,0,0,25.1,7.287,37.652,24.9,30.769,31.984,6.275" transform="translate(38.59)"/><path class="q" d="M.983,22.251,39.4,0l7.286,10.325h16.8L65.31,25.912H1.966A1.962,1.962,0,0,1,.983,22.251Z" transform="translate(0 20.445)"/></g><path class="k" d="M0,1.593,8.19,0s.592,4.783-3.038,5.317S0,1.593,0,1.593Z" transform="translate(26.429 333.449) rotate(-172)"/></g><path class="k" d="M0,1.593,8.19,0s.592,4.783-3.038,5.317S0,1.593,0,1.593Z" transform="matrix(0.999, 0.035, -0.035, 0.999, 53.105, 46.228)"/><g transform="translate(107.925 0)"><path class="a" d="M803.969,398.171c-8.085-6.1-13.058-17.108-8.531-15.836,7.4,5.577,11.6-9.389,14.84-12.753,3.455-3.592,18.409-14.137,26.328-4.249,4.96-1.448,9.364.551,12.979,11.393,4.515,13.54.5,20.024.889,31.739l-38.326-13.045Z" transform="translate(-793.721 -361.212)"/><g class="r" transform="translate(4.232)"><path class="s" d="M845.854,401.264c-4.879-5.628-15.728-14.711-14.877-22.708.175-1.647,2.889-6.945,6.684-10.63.167-1.857-1.9-3.249-5.82-.314-4.944,3.7-4.82,7.6-8.864,15.849-3.685,7.513-5.634,6.159-13.521,11.29-2.377,1.546-3.307,5.753-3.307,5.753l13.587-.56,24.575,1.924Z" transform="translate(-801.215 -362.959)"/></g><g transform="translate(33.506 30.066)"><path class="t" d="M854.656,420.656c4.422-3.205,6.158-4.344,6.159-4.344.338-1.763-.256-5.607,2.992-6.961,6.369-2.655,7.565,12.524,4.3,12.788-3.1.25.695,9.5,6.943,16.487,1.966,2.2,9.841,7,12.348,8.282,5.957,3.037-26.745,9.882-33.7,8.667-12.05-2.1.128-20.241-8.021-25.951C842.673,427.52,848.574,421.091,854.656,420.656Z" transform="translate(-844.868 -409.039)"/><g class="u"><path class="v" d="M869.245,395.3c42.446,50.051,22.533,55.486,4.434,59.536a45.792,45.792,0,0,0-4.435-15.52c-2.462-4.706-6.574-8.981-13.045-9.085C839.888,429.97,869.245,395.3,869.245,395.3Z" transform="translate(-847.244 -403.937)"/><path class="v" d="M845.49,455.043c1.234,12.275,10.909,12.17,10.909,12.17l1.238,9.144s-18.527,3.884-18.6,3.371-2.833-20.9-2.833-20.9Z" transform="translate(-841.649 -426.123)"/></g></g><g transform="translate(15.598 26.208)"><path class="w" d="M841.88,411.94c5.313,6.8,13.671,6.956,10.375,14.185-4.844,10.623-9.472,11.923-14.769,13.621-5.18,1.661-11.442-4.491-14.135-9.044a82.8,82.8,0,0,1-6.971-20.039,22.067,22.067,0,0,0,8.8-5.634c2.406-2.534,5.551-2.708,9.228-1.025C838.16,405.723,838.082,407.08,841.88,411.94Z" transform="translate(-816.38 -402.902)"/><g class="x"><path class="y" d="M819.63,399.886c1.927-8.8,51.6-28.107,53.434,16.382.111,2.692-8.6,5.752-5.312,11.265,3.2,5.377-25.228,5.495-22.7,6.618l-12.04,7.812c-.451.175,7.776-5.469,9.225-16.172.607-4.488-6.112-3.951-4.4-16.665C838.577,403.649,815.617,418.222,819.63,399.886Z" transform="translate(-817.412 -397.397)"/></g></g><ellipse class="z" cx="1.707" cy="2.275" rx="1.707" ry="2.275" transform="matrix(-0.951, 0.309, -0.309, -0.951, 37.166, 43.191)"/><ellipse class="z" cx="1.707" cy="2.275" rx="1.707" ry="2.275" transform="translate(25.767 45.642) rotate(163)"/><path class="k" d="M0,1.593,6.2,0s.448,4.783-2.3,5.317S0,1.593,0,1.593Z" transform="translate(30.528 54.757) rotate(-13)"/></g><g transform="matrix(0.996, 0.087, -0.087, 0.996, 2.258, 376.189)"><g transform="translate(0 0)"><path class="q" d="M.983,22.251,39.4,0l7.286,10.325h16.8L65.31,25.912H1.966A1.962,1.962,0,0,1,.983,22.251Z"/></g></g><g transform="translate(103.105 68.202)"><path class="aa" d="M.758,80.946C-2.514,74.4,5.92,75.971,5.234,73.485s1.184-2.256,1.493-7.868c.141-2.574,1.722-10.876,4.378-21.23-.121-6.846,2.822-25.577,10.409-37.1,9.139-13.88,23.615-3.835,31.28-2.932,5.037.593-5.173,53.142-18.809,66.506-.109,6.437,1.057,19.027-5.252,25.279a6.29,6.29,0,0,1-4.606,1.814C15.428,97.954,2.536,84.5.758,80.946Z"/></g><path class="p" d="M7.953,0S3.9,12.135.622,22.044,8.1,36.362,8.1,36.362L25.709,29.48,31.153,6.318" transform="matrix(0.996, 0.087, -0.087, 0.996, 41.563, 357.627)"/><path class="ab" d="M757.758,723.1c-5.45,4.255,7.95,1.49,9.068,62.187.093,10.248,0,15.625,0,18.682,0,2.878-26.17.357-25.375-3.93,3.926-21.152-11.7-60.9-16.074-82.2-2.139-10.41-7.705-15.42,23.435-37.08,29.835-20.752,59.92-30.859,63.968-33.932,21.735-16.505,85.449-7.424,53.04,27.1C843.707,697.487,782.993,703.4,757.758,723.1Z" transform="translate(-658.395 -467.084)"/><path class="ac" d="M751.457,741.553c-6.573,2.16,10.678,25.147-31.073,103.322-1.718,4.991-34.224-10.126-32.375-13.894,10.782-21.963,23.518-69.381,25.408-96.435.924-13.223,8.084-20.038,40.38-39.935,40.893-25.192,51.9-37.022,56.756-38.525,17.931-5.549,45.853-12.453,49.645,2.815,1.723,6.94.571,32.905-12.48,40.275C819.223,715.268,781.894,731.552,751.457,741.553Z" transform="translate(-646.141 -471.086)"/><g transform="translate(135.07 42.778)"><g class="ad"><path class="d" d="M841.695,435.453c4.431,18.053,3.93,23.161-1.672,24.048s-8.028-21.961-7.932-22.455S841.695,435.453,841.695,435.453Z" transform="translate(-833.76 -434.333)"/></g></g><path class="ae" d="M852.472,553.967c13.47.467,28.92.7,36.928,1.1,0,0,2.4-15.456,4.563-26.575,1.985-10.193-3.392-20.2,1.813-27.246s7.9-13.58,15.208-5.589.861,26.012-3.31,38.344-4.838,24.726-7.6,30.933c-3.551,7.989-5.91,9.337-14.42,7.244-9.829-2.418-25.136-2.462-37.533-8.55C843.854,561.53,847.113,553.781,852.472,553.967Z" transform="translate(-703.917 -412.549)"/><path class="af" d="M839.832,676.574c21.433,2.5,25.125,11.7,27.942,27.039,0,0,14.1-5.7,26.729-12.125s21.745-19.744,21.745-19.744l-45.621-17.218Z" transform="translate(-701.566 -472.91)"/><path class="ag" d="M910.944,602.763c-8.57,30.451-78.81-12.3-78.81-12.3a479.33,479.33,0,0,1,0-59.244c2.054-31.529-2.861-65.709,8-62.538s2.28,4.636,43.541-1.415S919.514,572.312,910.944,602.763Z" transform="translate(-695.538 -402.423)"/><g transform="translate(157.766 67.79)"><path class="ag" d="M907.337,481.52c-22-26.979-20.87,55.548-22.412,61.168s-6.515,8.262-5.549,11.617-.15,6.405-5.609,6.427c-7.32.029-.466,28.128,16.185,28.148s16.155-5.784,15.869-10.129c-.5-7.627,5.565-9.795,3.614-13.757s-.94-5.851,2.327-8.554a7.733,7.733,0,0,0,2.548-6.853s5.943-20.025,10-39.317C928.715,489.312,910.462,479.9,907.337,481.52Z" transform="translate(-870.852 -476.116)"/><g class="ah" transform="translate(0 5.225)"><path class="ai" d="M874.407,484.209c10.63,3.869,11.924,13.223,9.169,25.964s-2.935,39.328-8.265,39.946-8,.861-5.978,5.166,6.495,8.092,6.495,9.47-10.385-3.356-12.39-1.927,11.7,12.009,13.423,17.126-6.669,22.892-6.669,22.892l-76.322-45.774,67.663-76.744Z" transform="translate(-842.263 -481.235)"/></g></g><path class="ae" d="M779.872,596.106c7.1-2.586,19,2.5,21.36,9.464s-27.7,22.694-27.7,22.694l-13.966-3.286Z" transform="translate(-671.759 -450.961)"/><path class="aj" d="M761.268,610.105l-13.48-4.906a1.265,1.265,0,0,0-1.419.375c-.323.38-2.313,1.973-2.023,2.493l17.088,26.218a8.534,8.534,0,0,0,4.106,3.693l13.135,7.578c.419.179,1.682-1.473,1.941-1.715a1.394,1.394,0,0,0,.473-1.721l-15.238-28.063A8.536,8.536,0,0,0,761.268,610.105Z" transform="translate(-666.095 -454.562)"/><path class="k" d="M0,1.593,8.19,0s.592,4.783-3.038,5.317S0,1.593,0,1.593Z" transform="matrix(0.999, 0.035, -0.035, 0.999, 53.105, 43.456)"/><path class="ak" d="M779.872,596.106c7.1-2.586,19,2.5,21.36,9.464s-27.7,22.694-27.7,22.694l-13.966-3.286Z" transform="translate(-671.759 -450.961)"/><path class="al" d="M759.567,612.834l-13.48-4.906a1.286,1.286,0,0,0-1.563,1.835l15.209,27.251a8.539,8.539,0,0,0,4.106,3.694l13.915,5.937a1.286,1.286,0,0,0,1.634-1.8l-15.237-28.063A8.536,8.536,0,0,0,759.567,612.834Z" transform="translate(-666.109 -455.575)"/><path class="w" d="M840.56,622.239c7.122-.8,17.268,10.439,19.087,14.652s-33.873,5.523-42.081,5.523c-14.839,0-26.356-3.321-38.074,4.353-3.736,2.447-9.85,3.762-16.973-.752s-5.682-10.609-6.591-13.468,5.369-1.475,8.41-.376c0,0,6.175,1.768,8.486-.527s-3.485-3.386-4.243-6.019.454-3.386,7.425.752,8.789,4.547,17.2,2.875S835.206,622.842,840.56,622.239Z" transform="translate(-670.374 -460.905)"/><path class="am" d="M841.7,629.848c7.122-.8,16.137,5.646,17.956,9.859s-33.873,5.523-42.082,5.523c-14.839,0-26.356-3.321-38.074,4.353-3.736,2.447-9.85,3.762-16.973-.752s-5.682-10.609-6.591-13.468,6.407,4.561,9.448,5.661c0,0,16.128-.695,18.439-2.989s6.864-.89,15.274-2.561S836.344,630.45,841.7,629.848Z" transform="translate(-670.381 -463.721)"/></g><g transform="translate(1261.476 163.344) rotate(16)"><path class="an" d="M15.927,0a2.514,2.514,0,0,1,2.514,2.492,12.3,12.3,0,0,1,9.78,12.037V21.8a4.511,4.511,0,0,0,2.287,3.924,2.644,2.644,0,0,1,1.346,2.493,3.074,3.074,0,0,1-3.073,3.073H3.073A3.073,3.073,0,0,1,0,28.221a2.643,2.643,0,0,1,1.345-2.494A4.511,4.511,0,0,0,3.632,21.8V14.529a12.3,12.3,0,0,1,9.78-12.037A2.515,2.515,0,0,1,15.927,0Z" transform="translate(0 0)"/><path class="ao" d="M2.235,0h7.824a2.235,2.235,0,1,1,0,4.471H2.235A2.235,2.235,0,0,1,2.235,0Z" transform="translate(9.779 32.615)"/><path class="ap" d="M4.666,15.465a2.255,2.255,0,1,1-4.491.405C-.5,8.379.758,3.194,4.3.468A2.255,2.255,0,0,1,7.048,4.042C5.026,5.6,4.116,9.354,4.666,15.465Z" transform="translate(5.903 5.098)"/></g><g transform="translate(1229.135 330.022) rotate(11)"><path class="aq" d="M3.685,0H28.25a3.685,3.685,0,0,1,3.685,3.685V28.25a3.685,3.685,0,0,1-3.685,3.685H3.685A3.685,3.685,0,0,1,0,28.25V3.685A3.685,3.685,0,0,1,3.685,0Z" transform="translate(0 1.817)"/><path class="an" d="M3.685,0H28.25a3.685,3.685,0,0,1,3.685,3.685V8.6H0V3.685A3.685,3.685,0,0,1,3.685,0Z" transform="translate(0 1.817)"/><g transform="translate(5.506 0)"><ellipse class="ar" cx="2.273" cy="2.273" rx="2.273" ry="2.273" transform="translate(0 3.881)"/><path class="as" d="M0,1.228a1.228,1.228,0,0,1,2.457,0V6.089A1.228,1.228,0,1,1,0,6.089Z" transform="translate(1.107 0)"/></g><g transform="translate(20.859 0)"><ellipse class="ar" cx="2.273" cy="2.273" rx="2.273" ry="2.273" transform="translate(0 3.881)"/><path class="as" d="M0,1.228a1.228,1.228,0,0,1,2.457,0V6.089A1.228,1.228,0,1,1,0,6.089Z" transform="translate(1.107 0)"/></g></g><g transform="matrix(0.966, -0.259, 0.259, 0.966, 1153.282, 177.299)"><path class="at" d="M1.419,0h8.624a1.89,1.89,0,0,1,1.628.93L13.365,3.8a1.891,1.891,0,0,0,1.628.93h17.16a1.419,1.419,0,0,1,1.419,1.419V25.061a1.419,1.419,0,0,1-1.419,1.419H1.419A1.419,1.419,0,0,1,0,25.061V1.419A1.418,1.418,0,0,1,1.419,0Z" transform="translate(2.577 5.404)"/><g transform="translate(5.659 0)"><path class="au" d="M1.419,0H25.506a1.418,1.418,0,0,1,1.419,1.419V22.7a1.418,1.418,0,0,1-1.419,1.419H1.836A1.419,1.419,0,0,1,.417,22.725L0,1.446A1.418,1.418,0,0,1,1.391,0Z" transform="translate(0 0)"/><path class="ao" d="M.426.851A.426.426,0,1,1,.426,0H11.561a.426.426,0,1,1,0,.851Z" transform="translate(3.658 4.149)"/><path class="av" d="M.426.851A.426.426,0,1,1,.426,0H5.414a.426.426,0,1,1,0,.851Z" transform="translate(3.658 6.986)"/></g><path class="aw" d="M1.419,0H37.441a1.418,1.418,0,0,1,1.419,1.419,1.434,1.434,0,0,1-.011.18l-2,15.6a1.419,1.419,0,0,1-1.407,1.238H3.419A1.419,1.419,0,0,1,2.012,17.2l-2-15.6A1.419,1.419,0,0,1,1.238.011,1.443,1.443,0,0,1,1.419,0Z" transform="translate(0 13.315)"/></g><g transform="translate(830.941 163.198)"><g transform="translate(59.713 135.021) rotate(9)"><g transform="translate(0 0)"><path class="ax" d="M0,1.907a1.907,1.907,0,1,1,1.907,1.9A1.907,1.907,0,0,1,0,1.907" transform="translate(5.495 5.495)"/><path class="ay" d="M.1,9.332A11.54,11.54,0,0,1,.837,5.477,7.738,7.738,0,0,1,2.666,2.662,7.806,7.806,0,0,1,5.477.832,11.592,11.592,0,0,1,9.332.1C11.024.015,11.565,0,15.879,0s4.854.015,6.547.1A11.634,11.634,0,0,1,26.28.832a8.126,8.126,0,0,1,4.64,4.644,11.741,11.741,0,0,1,.741,3.855c.074,1.692.093,2.232.093,6.547s-.019,4.851-.093,6.543a11.789,11.789,0,0,1-.741,3.855,8.152,8.152,0,0,1-4.64,4.643,11.714,11.714,0,0,1-3.855.737c-1.692.078-2.237.1-6.547.1s-4.854-.019-6.547-.1a11.672,11.672,0,0,1-3.855-.737,7.8,7.8,0,0,1-2.811-1.833A7.731,7.731,0,0,1,.837,26.276,11.587,11.587,0,0,1,.1,22.422C.019,20.729,0,20.189,0,15.879S.019,11.023.1,9.332ZM2.955,22.292A8.856,8.856,0,0,0,3.5,25.239a4.9,4.9,0,0,0,1.192,1.826A4.844,4.844,0,0,0,6.513,28.25a8.841,8.841,0,0,0,2.952.552c1.674.075,2.17.089,6.414.089s4.74-.015,6.414-.089a8.811,8.811,0,0,0,2.948-.552,5.248,5.248,0,0,0,3.014-3.011,8.752,8.752,0,0,0,.545-2.947c.082-1.674.1-2.178.1-6.414s-.015-4.744-.1-6.417a8.811,8.811,0,0,0-.545-2.952,4.825,4.825,0,0,0-1.189-1.822A4.926,4.926,0,0,0,25.24,3.5a8.838,8.838,0,0,0-2.948-.548c-1.674-.074-2.173-.093-6.414-.093s-4.74.019-6.414.093A8.868,8.868,0,0,0,6.513,3.5,4.92,4.92,0,0,0,4.691,4.687,4.889,4.889,0,0,0,3.5,6.509a8.915,8.915,0,0,0-.545,2.952c-.078,1.674-.1,2.173-.1,6.417S2.877,20.618,2.955,22.292Z"/><path class="az" d="M8.154,0A8.154,8.154,0,1,1,0,8.158,8.154,8.154,0,0,1,8.154,0Zm0,13.445a5.292,5.292,0,1,0-5.3-5.288A5.29,5.29,0,0,0,8.154,13.445Z" transform="translate(7.725 7.721)"/></g></g><g transform="translate(60.933 8.245) rotate(-13)"><path class="ba" d="M6.819,0H27.275a6.819,6.819,0,0,1,6.819,6.819v14.49a6.819,6.819,0,0,1-6.819,6.819H8.634L2.762,32.765A1.705,1.705,0,0,1,0,31.428V6.819A6.819,6.819,0,0,1,6.819,0Z" transform="translate(0 0)"/><path class="bb" d="M2.177,4.355A2.177,2.177,0,1,1,4.355,2.177,2.178,2.178,0,0,1,2.177,4.355Zm7.258,0a2.177,2.177,0,1,1,2.177-2.178A2.177,2.177,0,0,1,9.435,4.355Zm7.258,0a2.177,2.177,0,1,1,2.177-2.178A2.178,2.178,0,0,1,16.692,4.355Z" transform="translate(8.524 12.785)"/><path class="at" d="M16.365,0a4.091,4.091,0,0,1,4.091,4.091V17.449a1.705,1.705,0,0,1-2.762,1.338l-2.418-1.911H4.091A4.091,4.091,0,0,1,0,12.785V4.091A4.091,4.091,0,0,1,4.091,0Z" transform="translate(16.195 15.15)"/><path class="bb" d="M2.177,4.355A2.177,2.177,0,1,1,4.354,2.178,2.177,2.177,0,0,1,2.177,4.355Zm7.258,0a2.177,2.177,0,1,1,2.177-2.177A2.177,2.177,0,0,1,9.435,4.355Z" transform="translate(20.711 21.537)"/></g><g transform="translate(9.051 65.762) rotate(14)"><path class="bc" d="M18.964,37.412A18.837,18.837,0,0,0,37.929,18.706,18.837,18.837,0,0,0,18.964,0,18.836,18.836,0,0,0,0,18.706,18.837,18.837,0,0,0,18.964,37.412Z" transform="translate(0 0)"/><path class="bd" d="M17.351,6.056a1.273,1.273,0,0,1,.834.951c.008.03.018.058.027.088s.016.05.023.076v.484a.113.113,0,0,0-.025.034,1.85,1.85,0,0,1-.452.917c-.028.03-.021.1-.01.153.014.073.034.145.052.218a1.831,1.831,0,0,1,.076.407,1.754,1.754,0,0,1-.445,1.183.2.2,0,0,0-.033.219,2.007,2.007,0,0,1,.119.5,1.878,1.878,0,0,1-.446,1.3.183.183,0,0,0-.041.146,1.9,1.9,0,0,1,.1.859,1.746,1.746,0,0,1-1.3,1.572,3.839,3.839,0,0,1-1.172.144h-1.8c-1.683,0-3.366,0-5.049.007a2.513,2.513,0,0,1-1.361-.364q.018-3.1.019-6.2V7.113c.012-.013.025-.026.035-.039.074-.091.149-.181.224-.272a9.165,9.165,0,0,0,.673-.88c.357-.556.7-1.123,1.035-1.69q.212-.355.425-.71A.955.955,0,0,0,9,2.965c-.016-.379-.024-.759-.032-1.139,0-.225-.01-.451-.016-.675A.953.953,0,0,1,9.54.23a2.1,2.1,0,0,1,1.8-.052,1.11,1.11,0,0,1,.647.665l.169.427c.16.4.321.808.466,1.216A3.426,3.426,0,0,1,12.7,4.362c-.064.313-.117.628-.17.942-.026.155-.052.31-.08.465s-.021.17.151.17h1.065c.981,0,1.963,0,2.945,0A2.375,2.375,0,0,1,17.351,6.056Zm-11.9,5.778c0,1.153,0,2.306.016,3.459,0,.021,0,.065,0,.126,0,.1,0,.247,0,.407q-1.652.006-3.3,0H.8a.744.744,0,0,1-.582-.24,1.241,1.241,0,0,1-.151-.238C.043,15.31.023,15.272,0,15.234V7.77c.005-.013.011-.026.017-.039.019-.044.037-.087.058-.128A.854.854,0,0,1,.927,7.12h4.55c-.009.354-.012.848-.014,1.028,0,.067,0,.091,0,.049-.014,1.182-.017,2.366-.016,3.548Z" transform="translate(10.211 10.792)"/></g></g><g transform="translate(623.767 182.42)"><g transform="translate(340.469 228.462)"><path class="be" d="M1180.661,626c-42.119,23.888-27.827,36.571-11.316,45.262,23.888,12.573,70.407,21.374,70.407,21.374l32.585-11.41Z" transform="translate(-1153.003 -608.364)"/><g transform="translate(54.26 1.599)"><path class="g" d="M1340.969,689.344c11.045,12.722,28.252,46.32,29.134,47.245,3.954,4.153,15.432-2.276,12.987-5.817-13.311-19.278-27.26-86.982-40.866-93.5-12.041-5.766-90.637-36.787-90.637-36.787l-12.27,28.336,88.175,26.58S1330.772,677.6,1340.969,689.344Z" transform="translate(-1239.317 -600.488)"/><g class="bf"><path class="bg" d="M1218.675,630.474c6.328-8.367,4.385-7.562,6.415-4.91,6.62,8.653,23.835,15.442,28.033,16.629,21.9,6.2,36.2,7.539,39.91,11.245a55.63,55.63,0,0,1,13.462,22.014c3.485,10.136,20.272,44.131,25.34,53.424a151.857,151.857,0,0,1,8.053,17.232l-22.623,11.5L1148.224,647.9S1206.791,646.187,1218.675,630.474Z" transform="translate(-1205.488 -609.122)"/></g></g><g transform="translate(11.063)"><path class="g" d="M1170.6,620.546c.463,23.013,21.916,36.9,40.083,38.573,23.725,2.189,66.574,13.23,70.556,16.4s.285-.829-3.431,22.264c-2.826,17.566,13.862,41.477,8.248,68.949-1.093,5.348,15.63,5.353,15.63,2.584,0-15.835,3.726-78.926,7.053-94.585,3.486-16.406-6.65-20.256-19-26.715-7.034-3.679-62.757-27.119-60.1-31.094,6.855-10.243-3.576-17.377-3.576-17.377l-48.094-1.6S1170.482,614.6,1170.6,620.546Z" transform="translate(-1170.6 -597.945)"/><g class="bh"><path class="bi" d="M1198.119,599.917c-16.176,11.548-30.365,8.265-31.849,18.044s7.954,15.52,23.437,19,63.4,12.665,73.766,15.2,10.77,13.3,7.285,16.788-10.453,14.49-10.453,21.182,8.083,43.013,2.472,48.623-157.047-114.784-157.047-115.734,30.724-50.047,30.724-50.047l62.129,13.62Z" transform="translate(-1146.51 -588.675)"/></g></g><path class="bj" d="M1388.008,890.132c12.743-.879,12.38-6.691,3.366-8.632-7.14-1.538-21.9-14.227-23.694-22.461-.2.09-8.814,2.872-14.724-2.5-1.74,8.032-7.853,27.691,0,29.306C1372.179,889.8,1376.678,890.913,1388.008,890.132Z" transform="translate(-1225.732 -696.903)"/></g><path class="bk" d="M1265.468,461.714c-.815-6.121.542-8.008.663-8.517s4.91.856,3.532,4.258A7.309,7.309,0,0,1,1265.468,461.714Z" transform="translate(-854.203 -315.69)"/><path class="ba" d="M-9124.72,5660.576c-.513-.258-19.861,32.7,15.013,51.617s69.243,14.964,69.243,14.964l30.923-42.783-60.262-24.851S-9110.182,5682.976-9124.72,5660.576Z" transform="translate(9482.126 -5428.011)"/><g transform="translate(360.553 70.904) rotate(-3)"><g transform="translate(22.644 42.318)"><path class="bl" d="M8.81,11.7c0-6.258-1.055-5.824-1.055-5.824C7.183,4.105,8,1.03,4.725.136-1.691-1.619-.666,14.233,2.465,14c4.03-.3-4.813,8.942,1.153,17.983s23.512,6.51,23.512,6.51c-.934-6.541-1.942-15.9-1.008-20.571C26.841,14.327,14.638,11.2,8.81,11.7Z"/><g class="bm" transform="translate(3.298 4.621)"><path class="bn" d="M11.781,0c-28.8,48.5,3.449,48.22,9.941,49.426L16.7,32.758Z" transform="translate(-3.164 -10.809)"/></g></g><g transform="translate(29.938 10.923)"><path class="g" d="M3.811,10.919C1.058,25.671-2.167,31.033,1.986,38.391c6.1,10.815,9.159,10.989,14.422,11.977,5.147.966,15.248-2.667,18.673-14.823,2.239-9.973-2.113-13.768-1.284-19.932C36-.814,7.187-7.165,3.811,10.919Z"/><g class="bo" transform="translate(0 0.353)"><path class="bp" d="M60.117,27.149,50.622,0l-32.7,4.181V34.448C14.189,37.215-3.935,33.013.776,39.33,16.643,60.6,34.428,66.361,32.259,61.869c-3.981-8.242-4.5-11.85-3.9-14.115,3.894-14.638-1.834-16.119,10.535-20.362,3.784-1.3,9.687,9.29,13.665,9.277C55.495,36.66,60.117,27.149,60.117,27.149Z" transform="translate(-18.553 -14.546)"/></g></g><path class="as" d="M42.759,4.347c4.758.231,13.193,10.178,14.3,27.627C59.03,46.4,45.468,51.761,45.468,51.761s.843,8.32,2.751,9.985c3.14-.432,18.857,2.285,22.55-20.59-3.878-1.6-8.5-2.651-10.4-7.029S60.59,9.934,43.375,1.88C7.08-12.676-23.973,61.934,26.137,65.819c11.96.927,14.04-14.058,14.04-14.058-8.1-.389-15.332-12.763-14.04-27.314" transform="translate(14.815 0) rotate(13)"/><g transform="translate(34.074 22.503) rotate(3)"><path class="bq" d="M0,.421a5.069,5.069,0,0,1,2.39-.4A2.917,2.917,0,0,1,3.6.421" transform="matrix(-0.999, -0.035, 0.035, -0.999, 13.256, 11.362)"/><path class="bq" d="M0,.421a5.069,5.069,0,0,1,2.39-.4A2.917,2.917,0,0,1,3.6.421" transform="matrix(-0.999, -0.035, 0.035, -0.999, 27.962, 13.192)"/><path class="an" d="M8.242,1.221c3.846,0,7.021,3.541,7.021,7.937s-3.175,7.937-7.021,7.937S1.221,13.553,1.221,9.158,4.4,1.221,8.242,1.221M8.242,0C3.663,0,0,4.09,0,9.158s3.663,9.158,8.242,9.158,8.242-4.09,8.242-9.158S12.821,0,8.242,0" transform="translate(22.092 2.865) rotate(9)"/><path class="an" d="M8.242,1.221c3.846,0,7.021,3.541,7.021,7.937s-3.175,7.937-7.021,7.937S1.221,13.553,1.221,9.158,4.4,1.221,8.242,1.221M8.242,0C3.663,0,0,4.09,0,9.158s3.663,9.158,8.242,9.158,8.242-4.09,8.242-9.158S12.821,0,8.242,0" transform="translate(4.004 0) rotate(9)"/><line class="br" x1="3.053" transform="translate(18.09 10.576) rotate(9)"/><line class="bs" x1="3.053" transform="translate(0 7.71) rotate(9)"/><line class="bs" x1="5.159" transform="translate(31.13 12.641) rotate(9)"/></g><path class="bt" d="M7.176,0A10.1,10.1,0,0,1,2.411.8,5.816,5.816,0,0,1,0,0" transform="translate(46.617 49.482) rotate(5)"/><path class="bu" d="M6.414.283c.274.437-1.136,2.652-3.38,2.652A3.265,3.265,0,0,1,0,.291C.007-.032,6.14-.154,6.414.283Z" transform="translate(63.077 46.546) rotate(112)"/><ellipse class="bu" cx="3.685" cy="3.686" rx="3.685" ry="3.686" transform="translate(36.665 39.934) rotate(14)"/></g><g transform="translate(357.812 138.791)"><g transform="translate(0 0)"><path class="bv" d="M1199.18,454.985c5.151-2.7,7.654-5.309,11.629-5.767,17.745,14.185,27.176,0,27.176,0s9.648,11.719,12.152,22.8c8.887,39.348-3.242,30-14.9,67.879-4.018,13.061-61.945,23.39-53.88-1.792,3.933-12.282,8.092-34.556,3.959-49.02S1180.72,464.645,1199.18,454.985Z" transform="translate(-1180.591 -449.218)"/></g></g><path class="bw" d="M1206.189,507.529c6.9,8.252,2.832,29.633,10.429,30.684,10.711,1.482,35.693-12.944,30.811-6.2-18.569,25.664-21.688,9.226-35.747,39.355-6.845,14.668-35.657,6.809-31.287-4.123,3.315-8.294,7.364-38.511,6.024-45.6S1206.189,507.529,1206.189,507.529Z" transform="translate(-822.54 -335.906)"/><path class="bv" d="M1197.019,466.806c-15.542,6.957-17.519,16.966-13.235,35.284,2.677,11.449,11.51,27.758,17.794,39.416,3.77,6.995,4.661,12.857,8.245,13.475,23.008,3.965,46.633-7.555,79.749-16.463a13.616,13.616,0,0,0-2.776-8.09s-36.8,6.064-51.1,7.331l-15.682,1.389s-9.542-20.539-13.719-35.356S1197.019,466.806,1197.019,466.806Z" transform="translate(-823.234 -320.782)"/><path class="aj" d="M1366.94,536.319l13.481-4.907a1.264,1.264,0,0,1,1.419.375c.323.379,2.313,1.973,2.023,2.493L1366.774,560.5a8.541,8.541,0,0,1-4.106,3.693l-13.135,7.578c-.42.179-1.682-1.473-1.942-1.715a1.394,1.394,0,0,1-.473-1.721l15.237-28.063A8.542,8.542,0,0,1,1366.94,536.319Z" transform="translate(-884.567 -344.744)"/><path class="al" d="M1369.661,539.048l13.481-4.906a1.286,1.286,0,0,1,1.563,1.835l-15.209,27.251a8.541,8.541,0,0,1-4.106,3.693l-13.915,5.937a1.286,1.286,0,0,1-1.635-1.8L1365.076,543A8.542,8.542,0,0,1,1369.661,539.048Z" transform="translate(-885.572 -345.758)"/><path class="g" d="M1347.947,563.868c4.891-2.932,5.43-5.062,7.758-7.174s2.52-.08,1.289,3.016,7.053,3.223,9.235,1.74,2.064-3.83,2.893-4.235,2.2.045,1.35,2.433c0,0,.557-.18.849.572a7.515,7.515,0,0,1-1.251,5.41c-1.415,2.191-1.268,5.583-3.151,6.517s-11.021.785-16.049-.588S1347.947,563.868,1347.947,563.868Z" transform="translate(-884.766 -353.842)"/><path class="bx" d="M1339.255,495.375c1.168-.821,2.942-.566,2.649-3.235a23.149,23.149,0,0,1,0-6.844c.385-2.327-.475-6.008,1.324-6.468s1.818.5,2.013,2.692,1.929,4.677,4.58,3.434c1.58-.741,3.483-2.286,6.017-2.754a9.2,9.2,0,0,1,6.111,1.111c5.921,3.1,3.573,4.5,1.668,4.014s-3.313-2.508-5.453-1.961,1.46,1.848,2.434,4.38-2.757,9.988-6.75,10.687-5.557-1.079-9.2,1.587C1341.6,504.255,1338.086,496.2,1339.255,495.375Z" transform="translate(-862.402 -323.534)"/><path class="by" d="M1218.481,567.587c-3.432-2.883-16.2-21.735-22.88-39.631L1184.3,503.111c-3.579,20.12,14.274,50.377,19.364,59.821,3.77,6.995,4.661,12.857,8.245,13.475,15.389,2.652,31.059-1.626,49.656-7.414C1246.352,570.6,1221.914,570.469,1218.481,567.587Z" transform="translate(-825.315 -342.209)"/><path class="bk" d="M1277.371,463.552c14.991,17.945,28.451,44.377,29.62,43.556s30.527-13.45,30.234-16.12,6.391,7.212,2.752,9.879c-3.052,2.237-24.668,18.538-29.44,21.892s-5.775,4.556-7.831,3.833c-5.456-1.92-19.551-24.082-19.551-24.082Z" transform="translate(-859.572 -320.536)"/><path class="by" d="M1340.717,506.6c-2,.728-33.336,17-35.566,17.812s-6.059-7.4-12.777-19l-8.314.775.727,8.38s14.095,22.162,19.551,24.082c2.056.724,3.059-.479,7.831-3.833s26.388-19.655,29.44-21.892C1342.613,512.188,1342.678,505.882,1340.717,506.6Z" transform="translate(-861.204 -332.591)"/><path class="an" d="M4.188.064C7.014-1.076,16.434,13.4,23.945,12.139s8.584-5.19,8.584-5.19,21.145,8.428,20.387,11.1-34.748,3.611-36.77,2.517-6.283-5.044-6.283-5.044v5.044H0S1.359,1.205,4.188.064Z" transform="matrix(0.998, 0.07, -0.07, 0.998, 462.576, 395.354)"/><path class="bj" d="M-8936.312,5786.073s5.2,9.054,22.6,14.851,7,9.4-2.094,7.472c-.927-.2-8.177,2.693-9.729,2.293-11.225-2.893-30.811-20.353-22.584-20.287C-8938.963,5790.475-8936.312,5786.073-8936.312,5786.073Z" transform="translate(9468.432 -5437.615)"/><path class="an" d="M3.7.064c2.5-1.135,10.816,13.257,17.449,12s7.582-5.16,7.582-5.16,18.672,8.379,18,11.032-30.687,3.591-32.473,2.5a46.115,46.115,0,0,1-5.551-5.014v5.014H0S1.2,1.2,3.7.064Z" transform="translate(515.768 357.866) rotate(-10)"/><g class="cc" transform="matrix(1, 0, 0, 1, -39.36, -27)"><path class="k" d="M34.011,48.979H24.49A24.489,24.489,0,1,1,24.49,0H156.638a24.489,24.489,0,0,1,0,48.978H53.448L36.362,61.027Z" transform="translate(518.97 87.99)"/></g><g transform="translate(495.637 74.854)"><text class="bz" transform="translate(71 15)"><tspan x="-65.625" y="0">Personal Assistant</tspan></text></g><g class="cb" transform="matrix(1, 0, 0, 1, -39.36, -27)"><path class="k" d="M24.489,61.026a24.489,24.489,0,0,1,0-48.978H47.872L50.222,0,67.31,12.048H170.5a24.489,24.489,0,0,1,0,48.978Z" transform="translate(266.68 88.03) rotate(180)"/></g><g transform="translate(46.819 12.939)"><text class="ca" transform="translate(77 15)"><tspan x="-76.461" y="0">Community Manager</tspan></text></g></g></g></svg>