<svg xmlns="http://www.w3.org/2000/svg" width="168.47" height="35" viewBox="0 0 168.47 35"><defs><style>.a{fill:#381a4b;}.b,.c{fill:none;stroke:rgba(56,26,75,0.98);stroke-width:0.4px;}.c{stroke-linecap:round;}.d{fill:#ff6060;font-size:25px;font-family:Poppins-Bold, Poppins;font-weight:700;}.e{fill:#2d2777;}</style></defs><g transform="translate(-140 -28.123)"><g transform="translate(140 28.123)"><g transform="translate(0 3.825)"><path class="a" d="M35.768,3.641c2.089.1,5.792,4.462,6.279,12.111.865,6.325-5.09,8.674-5.09,8.674s.541,3.838,1.378,4.568c1.378-.189,8.109.811,9.73-9.217-1.7-.7-3.73-1.162-4.568-3.081s.1-10.606-7.46-14.136C20.1-3.821,6.469,28.886,28.47,30.589c5.251.406,6.164-6.163,6.164-6.163-3.557-.171-6.732-5.595-6.164-11.974" transform="translate(-16.995 -1.736)"/><g transform="translate(10.989 7.419)"><path class="a" d="M25.749,28.741a3.336,3.336,0,0,1,3.108,3.514,3.336,3.336,0,0,1-3.108,3.514,3.336,3.336,0,0,1-3.108-3.514,3.336,3.336,0,0,1,3.108-3.514m0-.541A3.857,3.857,0,0,0,22.1,32.254a3.857,3.857,0,0,0,3.649,4.054A3.857,3.857,0,0,0,29.4,32.254,3.857,3.857,0,0,0,25.749,28.2" transform="translate(-12.775 -28.2)"/><path class="a" d="M55.749,28.741a3.336,3.336,0,0,1,3.108,3.514,3.132,3.132,0,1,1-6.217,0,3.336,3.336,0,0,1,3.108-3.514m0-.541A3.857,3.857,0,0,0,52.1,32.254a3.669,3.669,0,1,0,7.3,0A3.857,3.857,0,0,0,55.749,28.2" transform="translate(-50.884 -28.2)"/><line class="b" x1="1.351" transform="translate(8.109 3.649)"/><line class="c" x1="1.351" transform="translate(0 3.649)"/><line class="c" x1="2.284" transform="translate(13.954 3.649)"/></g></g></g><text class="d" transform="translate(184.47 54.123)"><tspan x="0" y="0">Julie</tspan><tspan class="e" y="0">Desk</tspan></text></g></svg>