<svg xmlns="http://www.w3.org/2000/svg" xmlns:xlink="http://www.w3.org/1999/xlink" width="477.265" height="341.403" viewBox="0 0 477.265 341.403"><defs><style>.a{fill:#88faa7;opacity:0.198;}.b{fill:url(#a);}.c{fill:url(#b);}.d,.q,.r,.s,.t{fill-rule:evenodd;}.d{fill:url(#c);}.e{opacity:0.703;}.f{fill:url(#d);}.g{fill:url(#e);}.h,.r{fill:#fff;}.i{fill:#ff8a77;}.j{fill:#feaebb;}.k{fill:#aeb8c1;}.l{fill:url(#f);}.m,.s{fill:#ff6060;}.n{fill:url(#g);}.o{fill:url(#h);}.p{fill:url(#k);}.q{fill:#381a4b;}.t{fill:#2c3950;}.u{fill:url(#r);}.v{fill:url(#s);}.w{fill:url(#t);}.x{filter:url(#p);}.y{filter:url(#n);}.z{filter:url(#l);}</style><linearGradient id="a" x1="0.547" y1="1.035" x2="0.499" y2="0.565" gradientUnits="objectBoundingBox"><stop offset="0" stop-color="#ffb0a1"/><stop offset="1" stop-color="#ff8e8c"/></linearGradient><linearGradient id="b" x1="0.277" y1="0.99" x2="0.521" y2="-0.018" gradientUnits="objectBoundingBox"><stop offset="0" stop-color="#ffcdc1"/><stop offset="1" stop-color="#ffa7a7"/></linearGradient><linearGradient id="c" x1="0.054" y1="1.596" x2="0.5" y2="0.5" gradientUnits="objectBoundingBox"><stop offset="0" stop-color="#ffe08b"/><stop offset="1" stop-color="#ff6060"/></linearGradient><linearGradient id="d" x1="0.5" y1="1" x2="0.909" y2="-0.706" gradientUnits="objectBoundingBox"><stop offset="0" stop-color="#ff6060"/><stop offset="1" stop-color="#ff9973"/></linearGradient><linearGradient id="e" x1="0.617" y1="0.971" x2="0.639" y2="0.552" gradientUnits="objectBoundingBox"><stop offset="0" stop-color="#f05959"/><stop offset="0.532" stop-color="#ff663e" stop-opacity="0.227"/><stop offset="1" stop-color="#ffa07c" stop-opacity="0"/></linearGradient><linearGradient id="f" x1="0.146" y1="0.131" x2="0.828" y2="1.661" gradientUnits="objectBoundingBox"><stop offset="0" stop-color="#aeb8c1"/><stop offset="1" stop-color="#575c61"/></linearGradient><linearGradient id="g" x1="0.582" y1="0.261" x2="0.679" y2="1.476" gradientUnits="objectBoundingBox"><stop offset="0" stop-color="#ff8a77"/><stop offset="1" stop-color="#fa6154"/></linearGradient><linearGradient id="h" x1="-0.526" y1="0.228" x2="0.712" y2="1.133" gradientUnits="objectBoundingBox"><stop offset="0" stop-color="#63d2c1"/><stop offset="1" stop-color="#326961"/></linearGradient><linearGradient id="k" x1="0.26" y1="-0.442" x2="1.229" y2="1.502" gradientUnits="objectBoundingBox"><stop offset="0" stop-color="#ff6060"/><stop offset="1" stop-color="#ac45f8"/></linearGradient><filter id="l" x="26.081" y="86.832" width="101.629" height="101.062" filterUnits="userSpaceOnUse"><feOffset dy="3" input="SourceAlpha"/><feGaussianBlur stdDeviation="10" result="m"/><feFlood flood-opacity="0.161"/><feComposite operator="in" in2="m"/><feComposite in="SourceGraphic"/></filter><filter id="n" x="121.176" y="68.757" width="110.064" height="109.382" filterUnits="userSpaceOnUse"><feOffset dy="3" input="SourceAlpha"/><feGaussianBlur stdDeviation="10" result="o"/><feFlood flood-opacity="0.161"/><feComposite operator="in" in2="o"/><feComposite in="SourceGraphic"/></filter><filter id="p" x="81.274" y="118.139" width="91.166" height="90.741" filterUnits="userSpaceOnUse"><feOffset dy="3" input="SourceAlpha"/><feGaussianBlur stdDeviation="10" result="q"/><feFlood flood-opacity="0.161"/><feComposite operator="in" in2="q"/><feComposite in="SourceGraphic"/></filter><linearGradient id="r" x1="6.809" y1="6.815" x2="-0.754" y2="-0.755" gradientUnits="objectBoundingBox"><stop offset="0.05" stop-color="#ffd521"/><stop offset="0.501" stop-color="#f50000"/><stop offset="0.95" stop-color="#b900b4"/></linearGradient><linearGradient id="s" x1="0.991" y1="0.991" x2="0.083" y2="0.082" xlink:href="#r"/><linearGradient id="t" x1="1.456" y1="1.456" x2="-0.313" y2="-0.313" xlink:href="#r"/></defs><g transform="translate(0 -10.351)"><path class="a" d="M-18342.809,11974.4s40.385-155.523-23.055-208.707-167.291-107.5-201.937-76.277-88.27,133.623-130.439,135.892-90.193,25.412-75.5,76.1,61.477,79.971,61.477,79.971Z" transform="translate(18784.992 -11649.347)"/><g transform="translate(415.213 324.587) rotate(173)"><g transform="translate(0 0)"><path class="b" d="M46.256,9.024S1.789-17.2.093,19.757,20.449,57.681,20.449,57.681s5.21,19.629-8.118,24.233S21.9,90.637,38.5,91.122s56.069,9.127,48.967,1.352S54.754,77.642,61.36,48.052s-5.747-29.536-5.747-29.536" transform="matrix(-1, 0.017, -0.017, -1, 163.245, 276.531)"/><g transform="translate(154.885 313.756) rotate(-171)"><path class="c" d="M.8,30.869c-4.511,38.876,10.463,66.41,33.465,61.864,27.816-6.451,30.7-24.189,35.8-45.807.056-.235.109-.471.162-.7a11.511,11.511,0,0,0,1.575.108c6.183,0,7.3-7.628,7.49-12.2S77.985,24.095,71.8,24.095a13.663,13.663,0,0,0-4.786.8C66.429,25.159,68.958-5.28,28.095.8.067,2.639,2.327,22.6.8,30.869Z" transform="translate(0 0)"/></g><path class="d" d="M18.224,19.563C16.1-3.017,11.218-9.8,1.039,19.563-.489,23.99-2.641,46.432,13.5,54.884c8.667,3.875,16.131,7.288,38.007,0,14.707-4.9,11.569-2.432,18.644,3.2,14.788-8.569,18.855-40.7-18.644-31.171C24.684,33.728,18.728,30.128,18.224,19.563Z" transform="translate(84.935 267.861)"/><ellipse class="e" cx="3.027" cy="4.036" rx="3.027" ry="4.036" transform="translate(126.755 261.069)"/><ellipse class="e" cx="3.027" cy="4.036" rx="3.027" ry="4.036" transform="translate(151.977 261.069)"/><path class="f" d="M154.022,192.95s31.866-8.481,43.619-36.713C280.252-22.584,139.248,22.95,77.257,3.95S-20.029,36.017,12.108,124.265c17.045,34.973,20.988,48.563,68.168,67.728.842-.051,7.928-5.365,26.954-4.788s46.791,5.745,46.791,5.745"/><path class="g" d="M137.1,83.857s31.866-8.481,43.619-36.713C186.147,27.229,150.964,5.814,113.031.725S-3.256,18.776.1,24.967C17.15,59.941,16.178,63.735,63.358,82.9c.842-.051,7.928-5.365,26.954-4.788S137.1,83.857,137.1,83.857" transform="translate(16.918 109.092)"/></g><path class="h" d="M0,2.826,14.526,0s1.049,8.483-5.388,9.43S0,2.826,0,2.826Z" transform="translate(147.072 242.105) rotate(-172)"/></g><path class="i" d="M-18598.289,11958.152l-11.555,143.724-70.229-13.763v40.9h136.813s-2.174-60.943-9.537-104.327S-18598.289,11958.152-18598.289,11958.152Z" transform="translate(18950.398 -11798.976)"/><path class="j" d="M32.063,6.021C27.435,6.021,0,.931,0,.931V20.691s2.107.252,5.3.615H0L49.691,29.2V21.306H42.1a12.46,12.46,0,0,0,3.428-3.458L43.256,0S36.689,6.021,32.063,6.021Z" transform="translate(270.327 314.603) rotate(180)"/><path class="k" d="M-18346.754,12311.078h-46.066v8.988h46.066Z" transform="translate(18620.383 -11991.309)"/><g transform="translate(63.254 210.727)"><path class="h" d="M-18291.77,12069.834l14.387,118.578h-6.082l-13.441-118.578Z" transform="translate(18443.486 -12069.834)"/><path class="l" d="M-18140.258,12069.834h-146.58l13.658,119.172h147.8Z" transform="translate(18286.838 -12069.834)"/></g><rect class="m" width="477.265" height="4.154" transform="translate(0 328.042)"/><path class="n" d="M-18555.986,12278.092l-21.725-3.145s11.891,11.609,6.354,13.287-85.564,3-85.564,3l2.717,9.5h123.328Z" transform="translate(18926.408 -11971.854)"/><g transform="translate(351.486 189.364)"><path class="o" d="M-18690.832,12020.552s13.955,13.37,15.506,25.761,1.252,15.519-3.506,19.885-12.445,11.205-10.34,16.5-5.855,10.129-10.68,12.065-4.543,10.634-4.543,10.634h-10.219a9.75,9.75,0,0,1-5.937-10.634c.941-8.2,7.809-5.013,5.938-14.709s-6.148-22.2,0-24.9,23.074-2.133,23.781-12.812A193.782,193.782,0,0,0-18690.832,12020.552Z" transform="translate(18747.943 -12020.552)"/><path class="o" d="M-18629.049,12073.516s22.381,10.068,25.031,23.4.689,19.82,3.928,22.809,1.98,14.179,1.98,14.179h-15.684s-7.246-10.366-7.32-18.7,2.777-12.614,0-22.906A81.6,81.6,0,0,0-18629.049,12073.516Z" transform="translate(18629.049 -12049.069)"/><path class="o" d="M-18691.723,12135.93a11.148,11.148,0,0,0-4.514,11.012c1.182,7.386-3.393,12.041-9.119,15.793s-7.668,7.82-7.668,7.82h-7.613s6.66-25.77,15.281-29.465A134.534,134.534,0,0,1-18691.723,12135.93Z" transform="translate(18765.174 -12082.675)"/><path class="p" d="M-18647.877,12201.914h-51.35l11.418,59.766h26.8Z" transform="translate(18711.449 -12118.202)"/></g><g class="z" transform="matrix(1, 0, 0, 1, 0, 10.35)"><path class="q" d="M489.416,258A20.533,20.533,0,1,0,468.6,237.467,20.675,20.675,0,0,0,489.416,258Z" transform="translate(-412.52 -103.1)"/></g><path class="r" d="M502.513,239.294a1.4,1.4,0,0,1,.915,1.043c.009.032.02.064.029.1s.017.055.025.083v.531a.124.124,0,0,0-.027.038,2.03,2.03,0,0,1-.5,1.006c-.031.033-.023.113-.011.168.016.08.037.159.057.239a2.01,2.01,0,0,1,.083.447,1.925,1.925,0,0,1-.488,1.3.216.216,0,0,0-.036.24,2.2,2.2,0,0,1,.13.546,2.061,2.061,0,0,1-.49,1.426.2.2,0,0,0-.044.161,2.085,2.085,0,0,1,.109.943,1.917,1.917,0,0,1-1.423,1.725,4.214,4.214,0,0,1-1.286.158l-1.972,0c-1.847,0-3.695,0-5.542.008a2.758,2.758,0,0,1-1.493-.4q.02-3.4.02-6.8v-1.8c.014-.014.027-.029.038-.043.081-.1.164-.2.246-.3a10.054,10.054,0,0,0,.739-.966c.392-.611.764-1.233,1.136-1.855q.233-.39.467-.779a1.048,1.048,0,0,0,.153-.611c-.017-.416-.026-.833-.035-1.25-.005-.247-.011-.495-.017-.741a1.046,1.046,0,0,1,.64-1.01,2.3,2.3,0,0,1,1.98-.057,1.218,1.218,0,0,1,.71.73l.185.469c.176.443.352.887.512,1.335a3.76,3.76,0,0,1,.08,2.058c-.07.343-.128.689-.186,1.034-.029.17-.057.341-.087.51s-.023.187.166.187l1.168,0c1.077,0,2.155,0,3.232.005A2.606,2.606,0,0,1,502.513,239.294Zm-13.066,6.341c0,1.266,0,2.531.017,3.8,0,.023,0,.071,0,.138,0,.111,0,.271,0,.447q-1.813.007-3.625,0h-1.5a.817.817,0,0,1-.639-.263,1.365,1.365,0,0,1-.166-.261c-.023-.043-.046-.085-.071-.127v-8.192c.006-.014.012-.029.019-.043.02-.048.041-.1.064-.141a.937.937,0,0,1,.934-.529h4.994c-.01.389-.014.93-.015,1.129,0,.074,0,.1,0,.054-.015,1.3-.018,2.6-.017,3.894Z" transform="translate(-416.181 -96.62)"/><g transform="translate(151.176 106.108)"><g transform="translate(0)"><g class="y" transform="matrix(1, 0, 0, 1, -151.18, -95.76)"><path class="r" d="M471.333,197.184a24.693,24.693,0,1,1,25.032-24.691A24.862,24.862,0,0,1,471.333,197.184Z" transform="translate(-295.13 -52.05)"/></g></g><path class="s" d="M472.606,186.5h.031a.607.607,0,0,0,.349-.11c.335-.233,8.237-5.766,11.148-10.433l.011-.019a6.71,6.71,0,0,0,.994-3.515,6.889,6.889,0,0,0-6.943-6.816,6.984,6.984,0,0,0-5.574,2.752,6.984,6.984,0,0,0-5.574-2.752,6.888,6.888,0,0,0-6.942,6.816,6.717,6.717,0,0,0,.993,3.515l.012.019c2.91,4.667,10.812,10.2,11.147,10.433A.6.6,0,0,0,472.606,186.5Z" transform="translate(-447.59 -149.465)"/></g><g transform="translate(111.274 155.49)"><g class="x" transform="matrix(1, 0, 0, 1, -111.27, -145.14)"><path class="r" d="M434.272,302.146a15.372,15.372,0,1,0-15.583-15.371A15.478,15.478,0,0,0,434.272,302.146Z" transform="translate(-307.41 -126.27)"/></g><path class="t" d="M442.1,301.035l-.016-5.173h-2.158v-2.217h2.158v-1.478a2.687,2.687,0,0,1,2.934-2.956,15.717,15.717,0,0,1,1.75.091v2.085h-1.2c-.941,0-1.124.46-1.124,1.134v1.123h2.676l-.719,2.217h-1.957v5.173Z" transform="translate(-427.942 -279.162)"/></g><g transform="translate(363.057 93.892)"><path class="u" d="M531.6,44.343a2.743,2.743,0,1,1,2.742,2.737,2.742,2.742,0,0,1-2.742-2.737" transform="translate(-523.701 -33.698)"/><path class="v" d="M503.139,48.017a16.594,16.594,0,0,1,1.065-5.544,11.643,11.643,0,0,1,6.672-6.679,16.671,16.671,0,0,1,5.544-1.06c2.434-.116,3.211-.138,9.415-.138s6.981.021,9.415.138a16.732,16.732,0,0,1,5.544,1.06,11.687,11.687,0,0,1,6.672,6.679,16.885,16.885,0,0,1,1.065,5.544c.106,2.433.133,3.21.133,9.415s-.027,6.976-.133,9.41a16.954,16.954,0,0,1-1.065,5.544,11.723,11.723,0,0,1-6.672,6.678,16.848,16.848,0,0,1-5.544,1.06c-2.434.112-3.217.139-9.415.139s-6.981-.027-9.415-.139a16.786,16.786,0,0,1-5.544-1.06,11.68,11.68,0,0,1-6.672-6.678,16.661,16.661,0,0,1-1.065-5.544c-.112-2.434-.139-3.211-.139-9.41S503.027,50.45,503.139,48.017Zm4.111,18.639a12.735,12.735,0,0,0,.783,4.238,7.052,7.052,0,0,0,1.714,2.626,6.966,6.966,0,0,0,2.62,1.7,12.714,12.714,0,0,0,4.245.793c2.407.107,3.12.129,9.223.129s6.817-.021,9.224-.129a12.672,12.672,0,0,0,4.239-.793,7.548,7.548,0,0,0,4.334-4.33,12.587,12.587,0,0,0,.783-4.238c.117-2.408.139-3.132.139-9.223s-.021-6.822-.139-9.229a12.671,12.671,0,0,0-.783-4.245,6.938,6.938,0,0,0-1.709-2.62,7.084,7.084,0,0,0-2.625-1.71,12.712,12.712,0,0,0-4.239-.788c-2.407-.106-3.126-.133-9.224-.133s-6.817.027-9.223.133a12.754,12.754,0,0,0-4.245.788,7.625,7.625,0,0,0-4.334,4.33,12.821,12.821,0,0,0-.783,4.245c-.112,2.407-.139,3.126-.139,9.229S507.138,64.248,507.25,66.656Z" transform="translate(-503 -34.597)"/><path class="w" d="M524.571,44.437a11.726,11.726,0,1,1-11.726,11.732A11.727,11.727,0,0,1,524.571,44.437Zm0,19.336a7.61,7.61,0,1,0-7.615-7.6A7.607,7.607,0,0,0,524.571,63.773Z" transform="translate(-501.736 -33.334)"/></g><ellipse class="h" cx="8.539" cy="7.847" rx="8.539" ry="7.847" transform="translate(131.548 258.345)"/></g></svg>