<svg xmlns="http://www.w3.org/2000/svg" width="60" height="60" viewBox="0 0 60 60"><defs><style>.a{fill:#471e60;}.b{fill:#ff6060;}</style></defs><path class="a" d="M37,54H35V44.2a1,1,0,0,0-2,0V54H7V34h8.321a1,1,0,1,0,0-2H6a1,1,0,0,0-1,1V54H3a1,1,0,0,0-1,1v2a5,5,0,0,0,5,5H33a5,5,0,0,0,5-5V55A1,1,0,0,0,37,54Zm-1,3a3,3,0,0,1-3,3H31V59a1,1,0,0,0-2,0v1H11V59a1,1,0,0,0-2,0v1H7a3,3,0,0,1-3-3V56H36Z" transform="translate(-2 -2.003)"/><path class="a" d="M54,8h2a1,1,0,0,0,0-2H54a3,3,0,0,0-3,3v1H50a1,1,0,1,0,0,2h1v3a1,1,0,1,0,2,0V12h1a1,1,0,0,0,0-2H53V9A1,1,0,0,1,54,8Z" transform="translate(-2.001 -1)"/><path class="a" d="M59,2H47a3,3,0,0,0-3,3V7a1,1,0,1,0,2,0V5a1,1,0,0,1,1-1H59a1,1,0,0,1,1,1V17a1,1,0,0,1-1,1H47a1,1,0,0,1-1-1V11a1,1,0,0,0-2,0v6a3,3,0,0,0,3,3H59a3,3,0,0,0,3-3V5a3,3,0,0,0-3-3Z" transform="translate(-2.002 -1)"/><path class="a" d="M49,42a4,4,0,1,0,4-4A4,4,0,0,0,49,42Zm6,0a2,2,0,1,1-2-2A2,2,0,0,1,55,42Z" transform="translate(-2.001 -1.699)"/><path class="a" d="M59,33H47a3,3,0,0,0-3,3V48a3,3,0,0,0,3,3H59a3,3,0,0,0,3-3V46a1,1,0,1,0-2,0v2a1,1,0,0,1-1,1H47a1,1,0,0,1-1-1V36a1,1,0,0,1,1-1H59a1,1,0,0,1,1,1v6a1,1,0,0,0,2,0V36a3,3,0,0,0-3-3Z" transform="translate(-2.002 -1.745)"/><path class="b" d="M24.47,13.851a.995.995,0,0,0,.98.04l6-3a1,1,0,0,0,0-1.78l-6-3A1,1,0,0,0,24,7v6A1,1,0,0,0,24.47,13.851ZM26,8.62,28.76,10,26,11.38Z" transform="translate(-2 -1)"/><path class="a" d="M27,19a9,9,0,1,0-9-9,9,9,0,0,0,9,9ZM27,3a7,7,0,1,1-7,7,7,7,0,0,1,7-7Z" transform="translate(-2.001 -1)"/><path class="a" d="M37,23a1,1,0,0,0,.8-.4l3-4a1,1,0,1,0-1.6-1.2l-3,4A1,1,0,0,0,37,23Z" transform="translate(-2 -1.291)"/><path class="a" d="M39.2,26.6a1,1,0,0,0,1.4.2l4-3a1,1,0,1,0-1.2-1.6l-4,3a1,1,0,0,0-.2,1.4Z" transform="translate(-2 -1.375)"/><path class="a" d="M49,28.8a1,1,0,0,0-1.2-.8l-5,1a1.005,1.005,0,0,0,.2,2h.2l5-1a1,1,0,0,0,.8-1.2Z" transform="translate(-2.001 -1.465)"/><path class="a" d="M3,29H15a1,1,0,0,0,1-1V12a1,1,0,0,0-1-1H3a1,1,0,0,0-1,1V28a1,1,0,0,0,1,1ZM4,13H14V27H4Z" transform="translate(-2 -1.233)"/><path class="a" d="M11,15H9a1,1,0,1,0,0,2h2a1,1,0,1,0,0-2Z" transform="translate(-2 -1.237)"/><path class="a" d="M11,19H7a1,1,0,0,0,0,2h4a1,1,0,1,0,0-2Z" transform="translate(-1.999 -1.305)"/><path class="a" d="M11,23H7a1,1,0,0,0,0,2h4a1,1,0,1,0,0-2Z" transform="translate(-1.999 -1.373)"/><path class="a" d="M36.122,28.7a1,1,0,1,0-1.74,1l4.41,7.631-16,6h-.15l-2.6,1.5-1.73,1a2,2,0,0,1-2.73-.73l-2-3.46A2,2,0,0,1,14.33,39l3.46-2,2.5,4.33a1,1,0,0,0,1.74-1l-2.58-4.46L32,25.52l.41.71a1,1,0,0,0,1.74-1l-1-1.73a1.013,1.013,0,0,0-1.51-.27l-14,11.541-4.26,2.46a4,4,0,0,0-1.84,4.53l-1,.57a3,3,0,0,0,1.5,5.6,3.06,3.06,0,0,0,1.5-.4l1-.57A3.88,3.88,0,0,0,16.291,48a3.79,3.79,0,0,0,1.05.14,3.94,3.94,0,0,0,2-.54l.87-.5,2,3.47a3,3,0,1,0,5.19-3l-1.82-3.17,15-5.63a1,1,0,0,0,.52-1.43ZM12.5,45.792a1,1,0,1,1-1-1.73l.87-.5,1,1.73Zm13.161,2.8a1,1,0,0,1-1.73,1l-2-3.47,1.66-.95h.08Z" transform="translate(-2 -1.691)"/></svg>