<svg xmlns="http://www.w3.org/2000/svg" width="56.867" height="26.013" viewBox="0 0 56.867 26.013"><defs><style>.a{fill:#ff4a00;}</style></defs><path class="a" d="M34.124,11.575H32.707a2.726,2.726,0,0,1-.065-.4,4.624,4.624,0,0,1,0-.894,2.752,2.752,0,0,1,.065-.4h3.533V21.06a5.278,5.278,0,0,1-.534.065q-.267.02-.535.022t-.512-.022a5.263,5.263,0,0,1-.534-.065V11.575h0Zm12.3,2.813a4.127,4.127,0,0,0-.163-1.167,2.975,2.975,0,0,0-.48-.97,2.34,2.34,0,0,0-.807-.665,2.534,2.534,0,0,0-1.167-.251,2.57,2.57,0,0,0-2.039.807,3.949,3.949,0,0,0-.861,2.246h5.517ZM40.884,16a3.653,3.653,0,0,0,.949,2.682,3.766,3.766,0,0,0,2.671.851,8.019,8.019,0,0,0,2.943-.545,3.285,3.285,0,0,1,.283.8,5.189,5.189,0,0,1,.131.927,7.281,7.281,0,0,1-1.581.458,11.007,11.007,0,0,1-1.908.153,7.207,7.207,0,0,1-2.617-.425,4.6,4.6,0,0,1-2.835-3.031,7.833,7.833,0,0,1-.327-2.322,8.226,8.226,0,0,1,.316-2.322,5.233,5.233,0,0,1,.97-1.875,4.688,4.688,0,0,1,1.646-1.265,5.437,5.437,0,0,1,2.344-.469A4.9,4.9,0,0,1,45.9,10a4.124,4.124,0,0,1,1.461,1.079,4.691,4.691,0,0,1,.894,1.635,6.7,6.7,0,0,1,.305,2.061q0,.305-.022.643-.018.289-.043.578h-7.61ZM50.937,9.874q.228-.041.458-.065c.145-.014.3-.022.458-.022s.32.007.48.022a3.6,3.6,0,0,1,.436.065q.065.327.13.861a7.659,7.659,0,0,1,.066.9,4.517,4.517,0,0,1,1.21-1.287,3.21,3.21,0,0,1,1.93-.545q.174,0,.36.011c.106.006.212.016.316.032a3.54,3.54,0,0,1,.066.414q.021.218.022.458a4.767,4.767,0,0,1-.033.545q-.031.273-.076.545a1.5,1.5,0,0,0-.36-.044H56.1a3.821,3.821,0,0,0-1.123.163,2.35,2.35,0,0,0-.959.578,2.874,2.874,0,0,0-.676,1.134,5.723,5.723,0,0,0-.251,1.853V21.06a5.3,5.3,0,0,1-.534.065q-.294.022-.534.022-.267,0-.534-.022t-.556-.065V9.874ZM35.633,3.9a2.167,2.167,0,0,1-.139.764,2.17,2.17,0,0,1-.764.139h0a2.168,2.168,0,0,1-.765-.139,2.165,2.165,0,0,1-.139-.764v0a2.167,2.167,0,0,1,.139-.764,2.163,2.163,0,0,1,.765-.139h0a2.159,2.159,0,0,1,.764.139,2.164,2.164,0,0,1,.139.764v0h0ZM38.3,3.3H36.185L37.679,1.8a3.634,3.634,0,0,0-.853-.853L35.331,2.443V.33a3.637,3.637,0,0,0-.6-.05h0a3.626,3.626,0,0,0-.6.05V2.443L32.631.949a3.615,3.615,0,0,0-.462.391h0a3.643,3.643,0,0,0-.39.462L33.272,3.3H31.159s-.05.4-.05.6v0a3.621,3.621,0,0,0,.05.6h2.113L31.778,6a3.645,3.645,0,0,0,.853.853l1.494-1.494V7.469a3.653,3.653,0,0,0,.6.05h.005a3.652,3.652,0,0,0,.6-.05V5.356L36.825,6.85a3.648,3.648,0,0,0,.462-.391h0A3.655,3.655,0,0,0,37.678,6L36.184,4.5H38.3a3.633,3.633,0,0,0,.05-.6V3.9a3.638,3.638,0,0,0-.05-.6h0ZM0,20.755,5.887,11.6H.7a5.343,5.343,0,0,1-.065-.872A5.192,5.192,0,0,1,.7,9.874H9.093l.109.284-5.931,9.18h5.56a6.024,6.024,0,0,1,.066.894,5.042,5.042,0,0,1-.065.829H.109L0,20.755Zm16.986-4.95q-.327-.043-.829-.087t-.85-.044a3.547,3.547,0,0,0-2.06.5,1.744,1.744,0,0,0-.709,1.526,1.874,1.874,0,0,0,.24,1.025,1.649,1.649,0,0,0,.6.567,2.076,2.076,0,0,0,.8.24q.436.044.829.043a10.193,10.193,0,0,0,1.036-.055,6.215,6.215,0,0,0,.949-.163V15.805Zm0-2.115a2.128,2.128,0,0,0-.654-1.788,3.074,3.074,0,0,0-1.9-.5,8.055,8.055,0,0,0-1.428.12,10.927,10.927,0,0,0-1.3.316,3.393,3.393,0,0,1-.414-1.723,10.038,10.038,0,0,1,1.635-.37,11.882,11.882,0,0,1,1.723-.131,4.894,4.894,0,0,1,3.314.992A4.011,4.011,0,0,1,19.1,13.777v7q-.764.174-1.853.36a13.281,13.281,0,0,1-2.224.185,8.7,8.7,0,0,1-1.93-.2,3.94,3.94,0,0,1-1.461-.633,2.931,2.931,0,0,1-.927-1.112,3.73,3.73,0,0,1-.327-1.636A3.333,3.333,0,0,1,11.8,14.922a4.62,4.62,0,0,1,1.5-.7A6.845,6.845,0,0,1,15.089,14q.7,0,1.145.033t.752.076V13.69Zm6.628,5.538a4.279,4.279,0,0,0,.851.218,7.9,7.9,0,0,0,1.134.066,3.987,3.987,0,0,0,1.439-.251,2.857,2.857,0,0,0,1.123-.774,3.783,3.783,0,0,0,.741-1.319,5.834,5.834,0,0,0,.273-1.886,5.174,5.174,0,0,0-.643-2.769,2.3,2.3,0,0,0-2.1-1.025,2.84,2.84,0,0,0-1.046.2,2.584,2.584,0,0,0-.894.589,2.908,2.908,0,0,0-.632.992,3.831,3.831,0,0,0-.24,1.428v4.535h0ZM21.456,9.874q.222-.044.447-.065t.469-.022c.145,0,.3.008.458.022a4.535,4.535,0,0,1,.458.065,1.371,1.371,0,0,1,.055.273q.032.229.065.49c.022.175.044.342.065.5s.033.262.033.305a4.428,4.428,0,0,1,.523-.676,3.5,3.5,0,0,1,.731-.589,3.822,3.822,0,0,1,.959-.414,4.321,4.321,0,0,1,1.188-.153,4.973,4.973,0,0,1,1.821.327,3.643,3.643,0,0,1,1.439,1.014A4.878,4.878,0,0,1,31.1,12.7a8.242,8.242,0,0,1,.338,2.5,6.234,6.234,0,0,1-1.559,4.5,5.832,5.832,0,0,1-4.415,1.624,7.59,7.59,0,0,1-.981-.065,5.829,5.829,0,0,1-.872-.174v5.124q-.276.045-.556.065-.295.021-.535.022-.267,0-.534-.022a5.268,5.268,0,0,1-.534-.065V9.874Z" transform="translate(0 -0.28)"/></svg>